<svg xmlns="http://www.w3.org/2000/svg" viewBox="0 0 481.91 436.71"><defs><style>.cls-1{fill:#231f20;}.cls-2{fill:#8dc63f;}.cls-3{fill:#f7941d;}.cls-4{fill:#f1f2f2;}.cls-5{fill:#be1e2d;}.cls-6{fill:#00aeef;}.cls-7{fill:none;stroke:#231f20;stroke-linecap:round;stroke-linejoin:round;stroke-width:0.5px;}</style></defs><g id="Layer_2" data-name="Layer 2"><g id="Layer_2-2" data-name="Layer 2"><path class="cls-1" d="M175.71,120.92l-2.82-1.18,0,.08-1-.18c-6.75,3-13.32,5.57-19.33,7.73-3.86,1.33-7.54,2.42-10.93,3.28l-.63.77-.58-.47c-.92.23-1.81.43-2.68.62l-1.94,3.76-.89-.45,1.56-3c-1.62.33-3.15.61-4.57.82s-2.67.39-3.84.5l-3.15.27c-1.85.07-3.17.16-3.89.13a41.55,41.55,0,0,1-6.27-.48l-.37.27c-.11-.13-.2-.26-.29-.39a32.76,32.76,0,0,1-7.27-2c.54-1.26,1.23-2.8,2-4.39,3.33.29,7.57.6,12.27.62.65,0,1.86,0,3.55,0l2.9-.17c1.08-.07,2.27-.22,3.57-.35,1.08-.13,2.24-.3,3.45-.49l.64-.77.67.55q2-.34,4.14-.81l2.11-4.07.89.45-1.72,3.33c3-.67,6.22-1.51,9.65-2.56,4.76-1.51,9.91-3.25,15.25-5.3l-1.19-.5.38-.92,2.15.89c1.25-.49,2.51-1,3.77-1.52l2.76-1.16c.8-.35,1.6-.69,2.4-1a245,245,0,0,0,23.69-12.08l.26-1,.94.25c.7-.41,1.41-.82,2.1-1.24l0,0,.32-6.1,1,0L204.47,98a246.85,246.85,0,0,0,23.64-16.34c1.24-1,2.44-2,3.63-2.93l-5.84-.32,0-1,6.93.38.37-.31-.09-.59,1-.16c5-4.23,9.55-8.37,13.49-12.16,3-3,5.67-5.74,8-8.17l.41.35c-2.17,2.52-4.73,5.4-7.65,8.52-3.77,3.93-8.11,8.24-13,12.66l0,1-.86-.05,1,6.38-1,.16-.93-5.86c-1.36,1.22-2.75,2.44-4.19,3.67A248.29,248.29,0,0,1,205.59,101l-.26,1-.86-.23-.2.12,0,.72-1,0a245.32,245.32,0,0,1-25,14.08c-1,.51-2,1-3.06,1.48.21.66.4,1.25.57,1.75l.81.34-.39.92c.13.39.22.63.24.7S176.11,121.43,175.71,120.92Zm-2.22-2,1,.4-.48-.63Z"/><path class="cls-1" d="M106.82,130.93a24.21,24.21,0,0,0-1.15,2.86l-.28,1.63s-.1-.59-.27-1.64a36.13,36.13,0,0,1-.44-4.45,14,14,0,0,1,.33-3.1l.35.07c.71,0,1.5.07,2.36.15l1,.09C108.05,128.13,107.36,129.67,106.82,130.93Z"/><path class="cls-1" d="M480.4,269.86l1.26,1.18c-.12-.07-.62-.42-1.43-1a44.15,44.15,0,0,0-3.92-2.39A48.91,48.91,0,0,0,449.23,262c-1,0-1.9.21-2.72.3s-1.56.23-2.2.35l-1.57.29-.85.19a6.86,6.86,0,0,1-1.34.09c-.35.66-.79,1.52-1.33,2.55-2,3.9-5.44,10.24-9.91,17.83-6.57,11.18-15.67,25-26.44,36.62a131.27,131.27,0,0,1-16.74,15.45A102.54,102.54,0,0,1,370,346a85.74,85.74,0,0,1-12.18,5.06l-.58.18c-.86.27-1.61.49-2.21.66a.66.66,0,0,1,0-.14c.61-.22,1.36-.46,2.22-.79l.5-.2A89.62,89.62,0,0,0,369.55,345,102.82,102.82,0,0,0,385,333.88a133.75,133.75,0,0,0,15.68-16.13c10-12,18.26-26,24.22-37.35,5.43-10.32,9.16-18.37,10.52-21.19l.33-.69c0-.08.08-.16.12-.23l.83-.26c.1.32.2.62.29.92l.37-.42a6.13,6.13,0,0,1,1.48-1.07,8.42,8.42,0,0,1,2-.61l1-.14.5,0,1.32-.08c.72,0,1.57-.09,2.51-.06s2,0,3.07.1a52,52,0,0,1,15,3.23,50.51,50.51,0,0,1,12.68,7A42.79,42.79,0,0,1,480.4,269.86Z"/><path class="cls-1" d="M436.34,257c.12.34.23.68.34,1l-.83.26c-.14-.29-.27-.57-.43-.86s-.41-.77-.65-1.16a19.56,19.56,0,0,0-3.53-4.57,12,12,0,0,0-6.9-3.24,15.05,15.05,0,0,0-2.13-.09,92.69,92.69,0,0,1-8.48,21.15,111.62,111.62,0,0,1-11.57,17.18,136.88,136.88,0,0,1-15.43,16c-5.5,4.91-11.17,9.37-16.51,13.38s-10.38,7.61-14.64,10.71c-2.68,1.93-5.05,3.68-7.05,5.17l-.35-.47.22-.19c1.87-1.61,4.1-3.48,6.58-5.55,8.15-6.87,19.32-15.75,29.57-26.14a137.2,137.2,0,0,0,14.09-16.52,108.8,108.8,0,0,0,10.1-17,92.64,92.64,0,0,0,5.93-16,42.22,42.22,0,0,0-4.76,2.37c-2,1.12-3.69,2.18-5,3s-2.32,1.31-2.68,1.49a7.85,7.85,0,0,1-4.23.8,2.63,2.63,0,0,1-2.35-1.57,3,3,0,0,1,.74-2.67,8.66,8.66,0,0,1,3.07-2.35l2.65-1.16c1.38-.61,3.24-1.46,5.49-2.38L409,247l.07,0h0a35.73,35.73,0,0,1,6.42-1.84l.33,0a22.82,22.82,0,0,1,7.11-.17,15.68,15.68,0,0,1,2,.4,14.45,14.45,0,0,1,7.75,5,20.42,20.42,0,0,1,2.77,4.58C435.81,255.64,436.09,256.35,436.34,257Z"/><path class="cls-2" d="M295.27,115.86a3,3,0,0,0,.6-.65,4.33,4.33,0,0,0,.75-2.38,6.08,6.08,0,0,0-1.11-3.61,7.15,7.15,0,0,0-3.88-2.57,10.81,10.81,0,0,0-4.72-.22,11.24,11.24,0,0,0-4.18,1.56,10,10,0,0,0-2.72,2.46,6.89,6.89,0,0,0-1,1.84,3,3,0,0,0,.6,3,2.32,2.32,0,0,0,2.39.5,16.23,16.23,0,0,0,2.12-1c.54-.27.93-.33,1-.55a5.19,5.19,0,0,1,.12-.57,4.42,4.42,0,0,1,.85-1.44,5.87,5.87,0,0,1,.87-.85,6.16,6.16,0,0,1,1.18-.75,7.27,7.27,0,0,1,3-.82,4.62,4.62,0,0,1,2.88.78,4.52,4.52,0,0,1,1.6,2.33,3.84,3.84,0,0,1,0,2.16A3.48,3.48,0,0,1,295.27,115.86Zm-118.84,6c0-.07-.11-.31-.24-.7l4.16,1.74a3,3,0,1,0-.12-1.14l-3.65-1.52-.81-.34c-.17-.5-.36-1.09-.57-1.75,1-.48,2-1,3.06-1.48a245.32,245.32,0,0,0,25-14.08l-.28,5.56a3.31,3.31,0,0,0-.91.24,3.07,3.07,0,1,0,1.91-.19l.28-5.56,0-.72.2-.12.86.23,6.76,1.82a3.05,3.05,0,1,0-.27-1.11L205.59,101a248.29,248.29,0,0,0,23.8-17.82c1.44-1.23,2.83-2.45,4.19-3.67l.93,5.86a3,3,0,0,0-.84.42,3.06,3.06,0,1,0,1.82-.58l-1-6.38.86.05,7.22.39a3.05,3.05,0,1,0-.49-1l-6.68-.36c4.84-4.42,9.18-8.73,13-12.66,2.92-3.12,5.48-6,7.65-8.52.08-.09.16-.17.23-.26l.64.09,1,.14.49,6.67a2.94,2.94,0,0,0-.87.35,3.07,3.07,0,1,0,1.87-.43l-.47-6.45,7.54,1.05a1.87,1.87,0,0,0,.07.22,25.45,25.45,0,0,0,2.1,4.65,21.69,21.69,0,0,0,4.57,5.58,17.91,17.91,0,0,0,3.65,2.41,19.46,19.46,0,0,0,4.41,1.51c6.14,1.32,12.51-.09,18.08,1.71a18.66,18.66,0,0,1,7.7,4.77,26.78,26.78,0,0,1,5.39,8A32.17,32.17,0,0,1,315,96.14a33.92,33.92,0,0,1-.29,9.51c-.06.4-.15.79-.22,1.18a34.79,34.79,0,0,0-4.34-2.44,18.87,18.87,0,0,0-2.63-1,10.56,10.56,0,0,0-.5-1.63,8.87,8.87,0,0,0-3.34-4.1,11,11,0,0,0-4.81-1.48c-5.58-.42-10.42-.78-15.14-1.06a18.86,18.86,0,0,0-3.79.21,11.53,11.53,0,0,0-3.71,1.29,13.13,13.13,0,0,0-4.68,4.56,16.26,16.26,0,0,0-2.31,6.54,15.6,15.6,0,0,0,1.28,8.34c.9,1.9,1.92,2.91,2.79,2.75s1.42-1.51,1.68-3.46.31-4.45.61-6.85c.05-.31.09-.84.26-1.57a10.91,10.91,0,0,1,1-2.64,7.22,7.22,0,0,1,2.33-2.65,8.44,8.44,0,0,1,4.55-1.11c4.28,0,9.64,0,14.83,0a6.92,6.92,0,0,1,3,.61,4.87,4.87,0,0,1,2,2.14c1,1.93.9,4.47.19,7s-1.88,5.1-2.8,7.76a17.82,17.82,0,0,0-1.2,8.43,11.93,11.93,0,0,0,.51,2.06c.23.65.51,1.24.77,1.81a7,7,0,0,1-1.47,8.71A11.79,11.79,0,0,1,295,141.9a24.64,24.64,0,0,1-4.14,1.07c-1.17.21-2.1.33-2.74.41l-1,.12,1-.05c.64,0,1.58-.09,2.77-.21a23.64,23.64,0,0,0,4.28-.78,12.67,12.67,0,0,0,5.08-2.72,9.23,9.23,0,0,0,3.17-6.23v-.06l.46-.69c1.61-2.45,3.92-6,6.38-10.42a78.82,78.82,0,0,0,3.9-8.2c.93.87,1.89,1.77,2.87,2.72s3.42,3.2,6.8,6.94A191.84,191.84,0,0,1,336,139.05c9.17,12.68,20.65,29.06,31.71,45.26s21.71,32.34,29.54,44.42C402.91,237.42,407.1,244,409,247l-1.45.57c-2.25.92-4.11,1.77-5.49,2.38l-2.65,1.16a8.66,8.66,0,0,0-3.07,2.35,3,3,0,0,0-.74,2.67,2.63,2.63,0,0,0,2.35,1.57,7.85,7.85,0,0,0,4.23-.8c.36-.18,1.33-.7,2.68-1.49s3.07-1.85,5-3a42.22,42.22,0,0,1,4.76-2.37,92.64,92.64,0,0,1-5.93,16,108.8,108.8,0,0,1-10.1,17,137.2,137.2,0,0,1-14.09,16.52C374.3,310,363.13,318.85,355,325.72c-2.48,2.07-4.71,3.94-6.58,5.55l-.22.19q-.4-5.94-.73-11.95l-.06-1.27c-.05-.9-.1-1.81-.14-2.72-.66-12.48-.33-25.08-.35-37.42,0-4.1-.06-8.18-.19-12.22s-.37-8-.7-12-.82-7.78-1.43-11.54a156.84,156.84,0,0,0-5.11-21.06,208.77,208.77,0,0,0-13.18-31.51c-4-7.9-7.1-13.11-8.21-15a172.72,172.72,0,0,0-12.78-18.89c-3.63-4.59-6.27-7.16-7-6.68s.54,3.93,3.18,9.12,6.62,12.13,11.08,19.7c1.09,1.91,4.19,7,8.29,14.63A204.77,204.77,0,0,1,334.33,223a150.78,150.78,0,0,1,5.4,20.21c.67,3.61,1.21,7.34,1.65,11.15s.73,7.73.95,11.7c.26,4.49.4,9.06.51,13.69.27,11.76.29,23.89,1.21,35.94.08,1.15.17,2.3.26,3.45-.2-1.11-.32-1.82-.36-2,0,.31.13,1.55.31,3.54,0,.27.05.56.08.86v0c.26,2.84.63,6.9,1,11.79.15,2,.31,4.23.45,6.54.41,6.78.7,14.55.46,22.57l0,.94c-.07,2.05-.18,4.12-.33,6.18a132.58,132.58,0,0,1-2.73,19.32,112.9,112.9,0,0,1-5.06,16.61,126.13,126.13,0,0,1-8.61,17.6,44.55,44.55,0,0,0-2,4.1l-.63,0-4,.18-2.05.09-2.1,0-8.65.09-4.48.05-4.57-.1-9.38-.22c-3.18-.09-6.39-.35-9.63-.51l-4.89-.29-2.45-.15-2.46-.23-9.89-.91a452.27,452.27,0,0,1-73.36-13.91l-3.77-1c-1.23-.34-2.42-.74-3.6-1.09l-6.74-2.07c-2.14-.68-4.19-1.23-6.08-1.91l-5.3-1.83-8.19-2.82-4.46-1.69c-3.28-1.22-6.45-2.29-9.35-3.19s-5.49-1.82-7.73-2.42a28.45,28.45,0,0,0-6.38-1.18c3.85-2.53,7.9-5.11,12-7.62,9.27-5.67,18.73-11,25.95-14.82,3.62-1.91,6.63-3.48,8.77-4.55l3.33-1.68-3.58,1.41c-2.29.89-5.54,2.22-9.44,3.84-7.79,3.26-18.08,7.84-28.27,12.83s-20.23,10.4-27.95,14.83S95,404.22,93.78,405a21.51,21.51,0,0,0-2.25,1.77,46.66,46.66,0,0,0-7.94-5.42c-1.86-1.06-10.3-5.25-21.37-11.74S37.56,374,26.41,362.58a112.91,112.91,0,0,1-14.57-18.2,93,93,0,0,1-9-18.06c-.37-1-.7-2-1-2.92,4.77-4.24,10.38-9.1,16.13-13.92,7.79-6.55,15.88-13,22.29-18l12.19-9.36a19.68,19.68,0,0,0,3.52-3.75h0l.65.45a22.35,22.35,0,0,0,3.64,1.88,32.79,32.79,0,0,0,4.62,1.63l2.28.57,4.14,1.1c1.66.43,3.59.92,5.71,1.56s4.5,1.24,7,2.06a307.13,307.13,0,0,1,34.66,13,307.12,307.12,0,0,1,31.85,16.57c4.15,2.53,7.59,4.66,9.93,6.23l3.64,2.39-3.42-2.7c-2.2-1.78-5.44-4.19-9.38-7.08a304.33,304.33,0,0,0-30.63-19.41c-2.72-1.51-5.48-3-8.25-4.38l-.39-.2c-8.44-4.3-16.88-8.07-24.14-11l-1.37-.55q-.64-.27-1.29-.51l.21-.53a2,2,0,0,0,.53.15,1.33,1.33,0,0,0,1.33-.36,1.52,1.52,0,0,0,.24-.78l0-.18a1.72,1.72,0,0,1,.43-.9,3.51,3.51,0,0,1,.77-.77.87.87,0,0,1,.19-.1c.07,0,.06,0,.19-.08a5.83,5.83,0,0,1,.72-.3A10.8,10.8,0,0,1,93,275.6l3.73-.22c1.4-.06,3-.05,4.62-.07,1.15,0,2.36.07,3.6.13h.28l1.62.09,5.3.51.29,0a95.68,95.68,0,0,1,12.12,2.38c.78.22,1.56.43,2.33.66l.76.23c.82.26,1.64.51,2.44.78l.31.1,1.14.39c1.52.54,3,1.11,4.42,1.69a80.28,80.28,0,0,1,9.17,4.5l1.84,1,1.59,1,.63.41a1.71,1.71,0,0,0,1.05.68c.31.21.6.41.86.61l.72.52,11.4,12.23,15.26,16.39q3,3.18,6.09,6.52c3.78,4.07,7.7,8.25,11.83,12.31,6.39,6.24,13.36,12.14,20.89,16.29,1.87,1.07,3.79,1.93,5.67,2.82s3.79,1.58,5.67,2.18,3.73,1.14,5.53,1.67,3.59.89,5.31,1.17a114.85,114.85,0,0,0,17.43,1.86c4.54.16,7.61.1,8.75.07,8.75-.32,15.7-2.43,16.13-4.39l.16,0c-.35,1.82-.15,3,.39,3.17.86.31,2.26-1.47,4.51-4.1l4-4.67c1.51-1.79,3.21-3.79,4.89-6.08.42-.57,1.19-1.64,2.22-3.22a53.3,53.3,0,0,0,3.49-6.32,81.86,81.86,0,0,0,6.27-20.8c1.5-8.42,2.13-18,2.77-28a267.66,267.66,0,0,0,.5-31.13,225.61,225.61,0,0,0-3.51-30.38c-.58-3.17-1.21-6.25-1.89-9.22,0-.06,0-.13,0-.19,1.88-1.65,3.52-3.12,4.86-4.4l4.8-4.44.17-.15-.17.15-5,4.23c-1.34,1.18-3,2.53-4.82,4-1.3-5.66-2.73-10.91-4.17-15.59-2.26-7.33-4.49-13.29-6.12-17.41-.81-2.07-1.52-3.66-2-4.75-.34-.83-.57-1.36-.66-1.57a.34.34,0,0,0,0-.08l1,3.53-8,1.29c-2.56.44-5.67,1-9.23,1.79a101,101,0,0,0-11.8,3.31,82.78,82.78,0,0,0-13.28,6.09,151.44,151.44,0,0,0-13.73,8.89c-4.62,3.29-9.29,6.85-14.11,10.35s-9.8,7-14.81,10.52c-10,7-20.13,14.18-29.25,21.72l-3.37,2.83-3.27,2.87-6.16,5.65a27.33,27.33,0,0,1-5.94,4.23,12.71,12.71,0,0,1-6.12,1.32,61.71,61.71,0,0,1-6.7-.73l-6.45-.89-11-1.51-4.83-.65c.76-.18,1.53-.37,2.28-.58a73.75,73.75,0,0,0,20.53-9c1.71-1.17,3.19-2.2,4.34-3.1l3,.44a14.34,14.34,0,0,0,4.44.1,6.92,6.92,0,0,0,4.43-2.72,11.81,11.81,0,0,0,1.82-4.18c.34-1.33.58-2.6.91-3.75a11.11,11.11,0,0,1,3.69-5.67A25,25,0,0,1,177,227.9c2.15-1,4.31-1.75,6.38-2.56a40.52,40.52,0,0,0,5.64-2.7,21,21,0,0,0,4.21-3.17,13.66,13.66,0,0,0,2.44-3.22,13.39,13.39,0,0,0,.65-1.54l1.28.09c2.56.14,5.24.38,8.48.36a22.7,22.7,0,0,0,5.15-.63,21.84,21.84,0,0,0,5.11-2A42.4,42.4,0,0,0,225,205.9c2.62-2.51,5.17-5,7.88-7.52s5.46-5,8.26-7.39c5.61-4.83,11.35-9.41,16.84-13.52s10.69-7.81,15.36-10.55a47.68,47.68,0,0,1,11.93-5.21,31.89,31.89,0,0,1,3.58-.73l1.2-.16-1.21.09a32.52,32.52,0,0,0-3.63.53,48.24,48.24,0,0,0-12.35,4.6c-4.89,2.52-10.28,6-16.05,9.77s-11.78,8.13-17.69,12.7c-3,2.28-5.89,4.63-8.75,7s-5.65,4.83-8.3,7.11a37.21,37.21,0,0,1-8,5.51,16.18,16.18,0,0,1-8,1.6c-2.7-.11-5.54-.48-8-.74s-4.7-.57-6.62-.82l-7.39-1c-7.72-1-14.19-.74-14.51,1s5.77,4.3,13.66,5.35c1,.12,3.66.43,7.58.77,1.58.14,3.37.28,5.33.42a14.08,14.08,0,0,1-.74,1.41,13.22,13.22,0,0,1-2.6,2.93,20.55,20.55,0,0,1-4.29,2.72,38.63,38.63,0,0,1-5.66,2.18c-2.07.63-4.34,1.24-6.64,2.08a35.48,35.48,0,0,0-3.49,1.46,20.85,20.85,0,0,0-3.42,2,14.31,14.31,0,0,0-3,2.9,13.9,13.9,0,0,0-2.09,3.81c-.49,1.32-.82,2.59-1.22,3.75a8.34,8.34,0,0,1-1.44,2.82,3.08,3.08,0,0,1-2,1,10.58,10.58,0,0,1-3.07-.36l-13.51-3c-8.12-1.8-14-3.08-15.39-3.33-4.11-.76-7.77-.58-9.43.31-5.48-1.49-10.84-3.18-14.15-4.21,2.08-3.36,5-8.26,7.68-13.17,4.38-7.9,8.11-15.76,8.34-16.25v0l1.92-1.37.3.11.49.16.19.21a1.22,1.22,0,0,0-.07-.17,64,64,0,0,0,7.81,2c1.77.33,3.59.59,5.29.77s3.24.35,4.52.56a20.76,20.76,0,0,1,4.39,1.15,3,3,0,0,0,2.06-.17,4.19,4.19,0,0,0,1.9-1.51,2.56,2.56,0,0,0,.22-2.49,3.66,3.66,0,0,0-2.3-2,14.12,14.12,0,0,0-2.09-.37,25.06,25.06,0,0,0-3.94-.05c-1.18.06-2.42.19-3.7.34h-.05c.16-.48.36-1,.59-1.61a40.19,40.19,0,0,1,3.89-6.81c1.62-2.4,3.36-4.87,4.56-7a22.74,22.74,0,0,0,2-4.41,5.23,5.23,0,0,0,.11-.75c.63.12,1.31.26,2.05.44,2.68.65,6.06,2.11,9.58,3.34a23.24,23.24,0,0,0,10,1.48,12.3,12.3,0,0,0,3.17-.75,7.64,7.64,0,0,0,.83-.36l.27-.12-.28.08a7,7,0,0,1-.87.24,12.38,12.38,0,0,1-3.15.32,22.37,22.37,0,0,1-9.21-2.66c-3.2-1.6-6.42-3.54-9.31-4.64a35.28,35.28,0,0,0-4.37-1.36,7.61,7.61,0,0,0-.16-2.13c-.1-.53-.73-2.82-1.29-6.05a76.26,76.26,0,0,1-1.12-11.53,93.62,93.62,0,0,1,.58-11.29,12.29,12.29,0,0,0-.25-3.73,6.56,6.56,0,0,0-.45-1.3,7.7,7.7,0,0,1,.29,1.33,11.85,11.85,0,0,1-.19,3.63,93.89,93.89,0,0,0-1.89,11.29,75,75,0,0,0-.18,12,59.38,59.38,0,0,0,.75,6.45c0,.19.09.37.14.54a.44.44,0,0,1-.17,0,2.17,2.17,0,0,1-1-.43,16.71,16.71,0,0,1-1.68-1.4c-.61-.56-1.23-1.16-1.83-1.79a38.82,38.82,0,0,1-4.3-5.41l-1-.08c.18-.45.35-.92.53-1.4.72-2,1.46-4.23,2.11-6.72.32-1.25.63-2.55.9-3.89q.21-1,.39-2l.13-.67c0-.28.1-.55.13-.82a3.85,3.85,0,0,0-.11-1.59,3.45,3.45,0,0,0-1.16-1.65,5.72,5.72,0,0,0-.85-.61l-.7-.44L132,145.27l-4.59-2.72a82.78,82.78,0,0,1-8-5.36,41.84,41.84,0,0,1-4.61-4.1,41.55,41.55,0,0,0,6.27.48c.72,0,2-.06,3.89-.13l3.15-.27c1.17-.11,2.44-.32,3.84-.5s2.95-.49,4.57-.82l-1.56,3a3.24,3.24,0,0,0-.93-.16,3.05,3.05,0,1,0,1.82.61l1.94-3.76c.87-.19,1.76-.39,2.68-.62l.58.47,4,3.3a3,3,0,1,0,.21-1.11l-3.59-3c3.39-.86,7.07-2,10.93-3.28,6-2.16,12.58-4.68,19.33-7.73l-1.17,6.27a3,3,0,0,0-.93.12,3.06,3.06,0,1,0,1.91.06l1.17-6.27,0-.08,2.82,1.18C176.11,121.43,176.37,121.75,176.43,121.82Zm116.62,2c.45-.46.62-1,.42-1.34a7.35,7.35,0,0,0-1.7-1.72,10.79,10.79,0,0,0-3.75-1.85,9.92,9.92,0,0,0-3.67-.28,8.16,8.16,0,0,0-1.12.22l-.4.11.38.16a9.87,9.87,0,0,1,.94.49,8.09,8.09,0,0,1,2.21,2,7.26,7.26,0,0,1,1.18,2.48c.16.71.18,1.17.22,1.26s.48.17,1.07.1a11.87,11.87,0,0,0,2.23-.53A5.17,5.17,0,0,0,293.05,123.82Zm-30.72,39.53-.69-1.88c-.12,0-12.48,4.06-25,8.51-10.58,3.73-21.68,8-25.81,9.58.11-.6.21-1.2.28-1.81a22.57,22.57,0,0,0,.1-3.77,10,10,0,0,0-1.22-4.57,12.32,12.32,0,0,0-3.26-3.61,21.4,21.4,0,0,0-3.57-2.23,23.87,23.87,0,0,0-2.37-1c1-1,2-1.9,3-2.82,3.07-2.75,6.67-5.68,11-8.95,8.18-6.16,15.8-11.46,21.45-14.93,3.15-2,5.73-3.41,7.34-4.28,1.79-1,2.82-1.5,2.83-1.5l-.32-.68s-1.07.47-2.93,1.37c-1.67.8-4.35,2.13-7.6,3.93-5.89,3.21-13.81,8.16-22.32,13.93-4.56,3.09-8.36,5.89-11.63,8.55a103.46,103.46,0,0,0-9.63,8.87c-2.12,2.23-3.94,4.29-5.42,6a2.4,2.4,0,0,0-1.3,1.4l0,.09s0,.09,0,.14c-1.12,1.36-2,2.41-2.45,3l-.42.53c-2.72,3.58-4.49,7.05-4.29,8.45a.91.91,0,0,0,.35.64.84.84,0,0,0,.51.16c1.74,0,5.15-4,6.52-5.77a11,11,0,0,0,1.12,2.11,16.71,16.71,0,0,0,4.09,4.11c.29.22.56.4.8.57l.63.43-.68.35c-6.47,3.24-12.55,6.86-12.61,6.9l.91,1.78c.06,0,6.51-2.76,13.23-5.09,5.26-1.86,10.73-3.46,13.36-4.23.77-.23,1.3-.38,1.51-.46a6.52,6.52,0,0,0,1.89-1c.66-.21,1.32-.45,2-.73l3.73-1.7c4.86-2.22,13.89-6.36,22.71-10.2C250.2,168.3,262.21,163.4,262.33,163.35Z"/><path class="cls-1" d="M409.08,247l-.07,0c-1.91-3-6.1-9.59-11.72-18.28-7.83-12.08-18.46-28.2-29.54-44.42S345.21,151.73,336,139.05a191.84,191.84,0,0,0-12.22-15.25c-3.38-3.74-5.89-6.07-6.8-6.94s-1.94-1.85-2.87-2.72a78.82,78.82,0,0,1-3.9,8.2c-2.46,4.45-4.77,8-6.38,10.42l-.46.69v.06a9.23,9.23,0,0,1-3.17,6.23,12.67,12.67,0,0,1-5.08,2.72,23.64,23.64,0,0,1-4.28.78c-1.19.12-2.13.17-2.77.21l-1,.05,1-.12c.64-.08,1.57-.2,2.74-.41A24.64,24.64,0,0,0,295,141.9a11.79,11.79,0,0,0,4.56-2.88,7,7,0,0,0,1.47-8.71c-.26-.57-.54-1.16-.77-1.81a11.93,11.93,0,0,1-.51-2.06,17.82,17.82,0,0,1,1.2-8.43c.92-2.66,2.1-5.24,2.8-7.76s.81-5.06-.19-7a4.87,4.87,0,0,0-2-2.14,6.92,6.92,0,0,0-3-.61c-5.19,0-10.55-.06-14.83,0a8.44,8.44,0,0,0-4.55,1.11,7.22,7.22,0,0,0-2.33,2.65,10.91,10.91,0,0,0-1,2.64c-.17.73-.21,1.26-.26,1.57-.3,2.4-.32,4.89-.61,6.85s-.81,3.3-1.68,3.46-1.89-.85-2.79-2.75a15.6,15.6,0,0,1-1.28-8.34,16.26,16.26,0,0,1,2.31-6.54,13.13,13.13,0,0,1,4.68-4.56,11.53,11.53,0,0,1,3.71-1.29,18.86,18.86,0,0,1,3.79-.21c4.72.28,9.56.64,15.14,1.06a11,11,0,0,1,4.81,1.48,8.87,8.87,0,0,1,3.34,4.1,10.56,10.56,0,0,1,.5,1.63,18.87,18.87,0,0,1,2.63,1,34.79,34.79,0,0,1,4.34,2.44l2,.21c-.08.33-.17.65-.25,1a48.08,48.08,0,0,1,5.29,4.41,95.82,95.82,0,0,1,7,7.53,190.43,190.43,0,0,1,12,16.13c8.77,13.12,19.55,29.9,30,46.56s20.37,33.19,27.69,45.58C403.4,237.14,407.3,243.88,409.08,247ZM309.36,121.88a74.29,74.29,0,0,0,3.55-8.9c-2-1.87-3.82-3.53-5.29-4.94a17.75,17.75,0,0,1-.83,3.17c-1,2.84-2.38,5.28-3.42,7.74a15.8,15.8,0,0,0-1.63,7.25,11.29,11.29,0,0,0,.89,3.44,14.61,14.61,0,0,1,.59,1.87,7.69,7.69,0,0,1,.18,1.51l.24-.41C305.1,130.07,307.19,126.43,309.36,121.88Z"/><path class="cls-1" d="M350.36,369.7A138.28,138.28,0,0,1,349.17,390q-.42,3.1-1,6.08v0A111.42,111.42,0,0,1,345.22,408c-.26.85-.52,1.68-.78,2.48v0l-.64,1.89a107.73,107.73,0,0,1-6.07,14.29l-.42.8a1,1,0,0,1-.1.17,24.71,24.71,0,0,1-5.91,7.18c-2,1.54-3.76,2.07-4.76,1.36s-1.09-2.53-.5-4.86a24.73,24.73,0,0,1,.91-2.83h0l-4,.31-2.06.16-2.1.08-8.67.36-4.5.19-4.59,0-3.07,0-6.3,0v-2.31l9.38.22,4.57.1,4.48-.05,8.65-.09,2.1,0,2.05-.09,4-.18.63,0a44.55,44.55,0,0,1,2-4.1,126.13,126.13,0,0,0,8.61-17.6,112.9,112.9,0,0,0,5.06-16.61,132.58,132.58,0,0,0,2.73-19.32c.15-2.06.26-4.13.33-6.18l0-.94c.24-8-.05-15.79-.46-22.57l2.91-.19q.38,5.74.67,11.39a2.18,2.18,0,0,1,0,.25c.06,1.08.11,2.14.16,3.21,0,0,0,.08,0,.12v0c.15,1.67.29,3.36.4,5.08,0,.39.06.79.08,1.19C350.21,363.84,350.33,366.76,350.36,369.7Z"/><path class="cls-1" d="M348.7,339.69l-2.91.19c-.14-2.31-.3-4.5-.45-6.54l3-.19Q348.5,336.43,348.7,339.69Z"/><path class="cls-1" d="M348.18,331.46l.35.47-.09.07-.22.16c0,.09,0,.18,0,.27s0,.48.05.72l-3,.19c-.37-4.89-.74-8.95-1-11.79v0c0-.3,0-.59-.08-.86-.18-2-.29-3.23-.31-3.54,0,.22.16.93.36,2-.09-1.15-.18-2.3-.26-3.45-.92-12-.94-24.18-1.21-35.94-.11-4.63-.25-9.2-.51-13.69-.22-4-.55-7.88-.95-11.7s-1-7.54-1.65-11.15a150.78,150.78,0,0,0-5.4-20.21,204.77,204.77,0,0,0-13.48-30.37c-4.1-7.65-7.2-12.72-8.29-14.63-4.46-7.57-8.44-14.5-11.08-19.7s-3.93-8.63-3.18-9.12,3.37,2.09,7,6.68a172.72,172.72,0,0,1,12.78,18.89c1.11,1.93,4.17,7.14,8.21,15a208.77,208.77,0,0,1,13.18,31.51,156.84,156.84,0,0,1,5.11,21.06c.61,3.76,1.08,7.62,1.43,11.54s.57,7.92.7,12,.18,8.12.19,12.22c0,12.34-.31,24.94.35,37.42,0,.91.09,1.82.14,2.72l.06,1.27Q347.77,325.51,348.18,331.46Z"/><path class="cls-1" d="M317.59,95.92a36.14,36.14,0,0,1-.9,10.12c-.07.33-.15.67-.24,1l-2-.21c.07-.39.16-.78.22-1.18a33.92,33.92,0,0,0,.29-9.51,32.17,32.17,0,0,0-2.57-9.42,26.78,26.78,0,0,0-5.39-8,18.66,18.66,0,0,0-7.7-4.77c-5.57-1.8-11.94-.39-18.08-1.71a19.46,19.46,0,0,1-4.41-1.51,17.91,17.91,0,0,1-3.65-2.41,21.69,21.69,0,0,1-4.57-5.58,25.45,25.45,0,0,1-2.1-4.65,1.87,1.87,0,0,1-.07-.22l-7.54-1.05.47,6.45a3,3,0,1,1-1.87.43,2.94,2.94,0,0,1,.87-.35l-.49-6.67-1-.14.14-1,.82.11-.08-1-.32-.29c.09-.11.19-.21.28-.31l-.47-6.3a3,3,0,0,1-1.31-5.62,3.09,3.09,0,0,1,1.59-.45,3,3,0,0,1,1.6,5.64,3,3,0,0,1-.88.35l.4,5.35c.55-.61,1.08-1.21,1.55-1.75l4.48-5.21c-.18.23-1.7,2.16-4.27,5.39-.52.65-1.11,1.36-1.72,2.1l.16,2.23,7.29,1c-.18-.61-.29-1.08-.37-1.38a24.63,24.63,0,0,1-.3-9.26c0-.23.08-.44.12-.65.5-2.46,1.29-3.93,2.17-3.95s1.7,1.46,2.36,3.79S271.28,50.83,272,54c.05.24.13.6.25,1.06a3.1,3.1,0,0,1,.27,1,21.42,21.42,0,0,0,1.47,3.7,15.88,15.88,0,0,0,3.07,4.2,12.13,12.13,0,0,0,5.43,3,43.27,43.27,0,0,0,8.2,1,33.76,33.76,0,0,1,10.09,1.81,22.86,22.86,0,0,1,9,6.3,30.33,30.33,0,0,1,5.6,9.38A35,35,0,0,1,317.59,95.92Z"/><path class="cls-1" d="M315.37,210.37l-.17.15Z"/><path class="cls-1" d="M315.2,210.52,310.4,215c-1.34,1.28-3,2.75-4.86,4.4,0,.06,0,.13,0,.19l-1.62.36-5.45-19.2a2.61,2.61,0,0,1-1.84,1.56,6.71,6.71,0,0,1-4.79-.57,23,23,0,0,1-2.72-1.7,37.71,37.71,0,0,0-4.45-2.92,9.55,9.55,0,0,0-2.64-.92,4.23,4.23,0,0,0-2.53.33,6.27,6.27,0,0,0-2.34,2.16,20.21,20.21,0,0,0-1.9,3.49,41.58,41.58,0,0,0-3.05,9.83l-1.7-.33A43.45,43.45,0,0,1,272.29,201a23.75,23.75,0,0,1,1.64-4.33,10.55,10.55,0,0,1,3.31-3.95,8.83,8.83,0,0,1,5.11-1.5,13.74,13.74,0,0,1,4.41.83,22,22,0,0,1,3.3,1.45l2.32,1.25c1.27.68,2.05,1,2.34,1.16a9.12,9.12,0,0,1,2.55,1.84,8.42,8.42,0,0,1,.61.73l-4.43-15.6h0l-1-3.53a.34.34,0,0,1,0,.08c.09.21.32.74.66,1.57.45,1.09,1.16,2.68,2,4.75,1.63,4.12,3.86,10.08,6.12,17.41,1.44,4.68,2.87,9.93,4.17,15.59,1.86-1.49,3.48-2.84,4.82-4Z"/><path class="cls-1" d="M311,259.15a267.66,267.66,0,0,1-.5,31.13c-.64,10-1.27,19.53-2.77,28a81.86,81.86,0,0,1-6.27,20.8,53.3,53.3,0,0,1-3.49,6.32c-1,1.58-1.8,2.65-2.22,3.22-1.68,2.29-3.38,4.29-4.89,6.08l-4,4.67c-2.25,2.63-3.65,4.41-4.51,4.1-.54-.18-.74-1.35-.39-3.17a17.33,17.33,0,0,1,1-3.24,36.12,36.12,0,0,1,3.12-5.87c1.32-2.07,2.88-4.2,4.47-6.36.4-.54,1.14-1.53,2.1-2.93a50.11,50.11,0,0,0,3.27-5.52,77.19,77.19,0,0,0,6.47-19.14c1.72-8,2.7-17.32,3.71-27.26a264.23,264.23,0,0,0,1.66-30.69,222.5,222.5,0,0,0-2.3-30.15c-.42-2.91-.89-5.74-1.39-8.48q-2.46,2.12-5.33,4.52l-.56-.72c2.08-1.6,4-3.11,5.77-4.5l1.62-.36c.68,3,1.31,6,1.89,9.22A225.61,225.61,0,0,1,311,259.15Z"/><path class="cls-2" d="M312.91,113a74.29,74.29,0,0,1-3.55,8.9c-2.17,4.55-4.26,8.19-5.72,10.73l-.24.41a7.69,7.69,0,0,0-.18-1.51,14.61,14.61,0,0,0-.59-1.87,11.29,11.29,0,0,1-.89-3.44,15.8,15.8,0,0,1,1.63-7.25c1-2.46,2.39-4.9,3.42-7.74a17.75,17.75,0,0,0,.83-3.17C309.09,109.45,310.91,111.11,312.91,113Z"/><path class="cls-3" d="M307.77,259.24a264.23,264.23,0,0,1-1.66,30.69c-1,9.94-2,19.3-3.71,27.26a77.19,77.19,0,0,1-6.47,19.14,50.11,50.11,0,0,1-3.27,5.52c-1,1.4-1.7,2.39-2.1,2.93-1.59,2.16-3.15,4.29-4.47,6.36A36.12,36.12,0,0,0,283,357a17.33,17.33,0,0,0-1,3.24l-.16,0a1,1,0,0,0,0-.24c-.12-2.08-7.5-3.12-16.35-2.8-1.11,0-4.1.21-8.47.25a112.86,112.86,0,0,1-16.65-.95c-1.64-.18-3.3-.55-5-.84s-3.47-.74-5.23-1.29-3.56-1.11-5.38-1.75-3.6-1.43-5.38-2.34c-7.2-3.49-14.16-8.76-20.7-14.54-4.15-3.68-8.17-7.54-12.06-11.32a4.38,4.38,0,0,0,.51,0,14.92,14.92,0,0,0,4.55-1.35,12.23,12.23,0,0,0,3.63-2.59,11.71,11.71,0,0,0,2.25-3.35c.47.62.94,1.24,1.46,1.86a46.15,46.15,0,0,0,5.33,5.13A35.59,35.59,0,0,0,217.42,331a31.42,31.42,0,0,0,9.39,1,27.09,27.09,0,0,0,10.05-2.34,22.21,22.21,0,0,0,8.53-6.79,25.34,25.34,0,0,0,4.48-9.93,33.09,33.09,0,0,0,.76-6.83,25.12,25.12,0,0,0,6.5,4.23,46.3,46.3,0,0,0,5.69,2.11,33.23,33.23,0,0,0,12,1.53,26.67,26.67,0,0,0,7.57-1.71,23.57,23.57,0,0,0,7.56-4.81,25.26,25.26,0,0,0,5.83-8.54,34.88,34.88,0,0,0,2.65-10.76,49.26,49.26,0,0,0-2.69-20.89A70.69,70.69,0,0,0,288,252.15c-2.65-4-5.05-7.1-6.7-9.27l-2.12-2.73,2.77-2,5.34-3.9c1.76-1.24,3.35-2.6,5-3.84l4.58-3.61c.66-.56,1.32-1.1,1.95-1.64q2.87-2.4,5.33-4.52c.5,2.74,1,5.57,1.39,8.48A222.5,222.5,0,0,1,307.77,259.24Z"/><path class="cls-4" d="M298.51,200.71l5.45,19.2c-1.75,1.39-3.69,2.9-5.77,4.5l-2,1.54-2.9,2.11-.12-.17a.93.93,0,0,0,.26-.36,3.65,3.65,0,0,0-.36-3,13.92,13.92,0,0,0-4.16-4.86,36.21,36.21,0,0,0-4-2.59,47.1,47.1,0,0,0-8.59-3.85c-1.29-.43-2.65-.83-4.08-1.17,0,0,0,0,0-.05a41.58,41.58,0,0,1,3.05-9.83,20.21,20.21,0,0,1,1.9-3.49,6.27,6.27,0,0,1,2.34-2.16,4.23,4.23,0,0,1,2.53-.33,9.55,9.55,0,0,1,2.64.92,37.71,37.71,0,0,1,4.45,2.92,23,23,0,0,0,2.72,1.7,6.71,6.71,0,0,0,4.79.57A2.61,2.61,0,0,0,298.51,200.71Z"/><path class="cls-1" d="M116.89,259.92l-.18-2.58a77,77,0,0,0,30.88-7.72c1.64-.88,3.1-1.67,4.3-2.38l.74.1c-1.15.9-2.63,1.93-4.34,3.1a73.75,73.75,0,0,1-20.53,9c-.75.21-1.52.4-2.28.58l4.83.65,11,1.51,6.45.89a61.71,61.71,0,0,0,6.7.73,12.71,12.71,0,0,0,6.12-1.32,27.33,27.33,0,0,0,5.94-4.23l6.16-5.65,3.27-2.87,3.37-2.83c9.12-7.54,19.24-14.69,29.25-21.72,5-3.52,10-7,14.81-10.52s9.49-7.06,14.11-10.35a151.44,151.44,0,0,1,13.73-8.89,82.78,82.78,0,0,1,13.28-6.09,101,101,0,0,1,11.8-3.31c3.56-.8,6.67-1.35,9.23-1.79l8-1.29h0l-7.9,1.55c-2.55.52-5.64,1.18-9.15,2.09a102.62,102.62,0,0,0-11.6,3.68,81.66,81.66,0,0,0-12.87,6.43,150.17,150.17,0,0,0-13.27,9.24c-4.48,3.42-9,7.13-13.75,10.81s-9.6,7.35-14.49,11C201,234.84,191.49,242,183,249.43l1.37-.44c.53-.16,1.07-.31,1.61-.45,2-.51,4-.89,6-1.2a33.2,33.2,0,0,1,6.18-.47,16.67,16.67,0,0,1,6.2,1.33l.16.07a34.06,34.06,0,0,1,1.72-7.25,23.55,23.55,0,0,1,9.09-11.88,18.21,18.21,0,0,1,3.62-1.72,16.88,16.88,0,0,1,3.9-.79,20.34,20.34,0,0,1,7.66.83,32.2,32.2,0,0,1,7.56,3.4l1.13.15c0,.17-.05.34-.07.51.19.12.4.24.59.37.36.23.72.47,1.06.72.62.43,1.22.87,1.79,1.31,3.19,2.5,5.67,4.78,7.58,6.41s3.17,2.67,3.63,3.06a28.92,28.92,0,0,1,4.36,4.51,7.71,7.71,0,0,1,1.05,1.84c1.19-.65,2.36-1.31,3.52-2,2.13-1.23,4.29-2.38,6.35-3.64l6.07-3.75,2.95-1.82,2.83-1.9,5.47-3.67c1.8-1.15,3.43-2.44,5.07-3.6l1.8-1.31,2.9-2.11,2-1.54.56.72c-.63.54-1.29,1.08-1.95,1.64l-4.58,3.61c-1.6,1.24-3.19,2.6-5,3.84l-5.34,3.9-2.77,2,0,0-2.86,1.93-6,4c-2,1.35-4.15,2.6-6.25,3.93-4.19,2.7-8.63,5.15-13.05,7.68s-9.07,4.9-13.66,7.14l-.21.11a320,320,0,0,1-38.57,15.8l-1.86.63-.19.07-.79.27c-.71.23-1.41.44-2.1.65,0,.07,0,.14,0,.21l-2,.37-3.92,1.17c-3.29,1-6.3,1.78-8.89,2.44s-4.76,1.24-6.46,1.64l-3.59.75c-2.65.53-5.18.94-7.5,1.23-1.62.15-3.14.24-4.51.26h-.24c-.52,0-1,0-1.48,0a22.57,22.57,0,0,1-3.78-.28l.72.7-.18.18-.72-.52c-.26-.2-.55-.4-.86-.61a1.71,1.71,0,0,1-1.05-.68l-.63-.41-1.59-1-1.84-1a80.28,80.28,0,0,0-9.17-4.5c-1.42-.58-2.9-1.15-4.42-1.69l-1.14-.39-.31-.1c-.8-.27-1.62-.52-2.44-.78l-.76-.23c-.77-.23-1.55-.44-2.33-.66a95.68,95.68,0,0,0-12.12-2.38l-.29,0-5.3-.51-1.62-.09H105c-1.24-.06-2.45-.1-3.6-.13-1.66,0-3.22,0-4.62.07L93,275.6a10.8,10.8,0,0,0-3.22.59,5.83,5.83,0,0,0-.72.3c-.13.07-.12,0-.19.08a.87.87,0,0,0-.19.1,3.51,3.51,0,0,0-.77.77,1.72,1.72,0,0,0-.43.9l0,.18a1.52,1.52,0,0,1-.24.78,1.33,1.33,0,0,1-1.33.36,2,2,0,0,1-.53-.15,3.1,3.1,0,0,1-1.54-1.43,4.22,4.22,0,0,1-.31-.82,3.79,3.79,0,0,1,.29-2.52,3.67,3.67,0,0,1,.6-.93,4.74,4.74,0,0,1,.89-.85,7.45,7.45,0,0,1,2.08-1.12,11.7,11.7,0,0,1,2-.52,23.34,23.34,0,0,1,3.27-.28c1.19,0,2.53,0,4,0s3.17.15,4.94.23l3.29.33.25,0,1.88.22h0c.12-1.81.26-3.4.39-4.69.16-1.51.31-2.62.42-3.25-2.32-.42-4.43-.88-6.26-1.34A76.55,76.55,0,0,1,116.89,259.92Zm100.09,9a11.88,11.88,0,0,1-3.55-2.77c-.39-.45-1.44-1.74-2.75-3.57a72.88,72.88,0,0,0-4.48-5.94l-.68-.73-.46-.46c-.29-.29-.59-.55-.9-.81a12.09,12.09,0,0,0-6.32-2.76,29.68,29.68,0,0,0-5.48-.19c-1.94.08-3.88.21-5.79.48a28.63,28.63,0,0,0-7.38,1.93,18.39,18.39,0,0,0-3.11,1.63h0l-.27.26-4.31,4.21,0,0,0,0c-.17.23-.32.47-.47.71a9.79,9.79,0,0,1,1.14,1.34c.5.7.88,1.35,1.23,1.9l1,1.64c2.67,4.26,4.6,7.37,5,8.12a10.4,10.4,0,0,1,1.37,5.82c1.71-.38,3.55-.81,5.5-1.35l5.15-1.34.1,0,1-.27c.53-.13,1.06-.27,1.59-.43l2.83-.84C203.15,273.71,209.91,271.51,217,268.91Zm32.56-14.08L255,252a15.69,15.69,0,0,1-5.43-3.11c-.52-.44-1.87-1.67-3.7-3.51-1.48-1.47-3.24-3.34-5.29-5.33l-.46-.45c-.36-.33-.71-.68-1.09-1l-.17-.15c0,.13,0,.28,0,.41l-.44-.41c0-.13,0-.29-.05-.42a32,32,0,0,0-9.27-5.95,14.48,14.48,0,0,0-12.16.18c-3.87,2-6.91,5.74-8.75,9.68A31.08,31.08,0,0,0,206,249c.3.17.58.35.86.53a25.31,25.31,0,0,1,2.62,2,63.32,63.32,0,0,1,6.05,6.49c1.41,1.66,2.35,2.63,2.68,3a25.48,25.48,0,0,1,3,4.09,9.41,9.41,0,0,1,.78,1.77c0,.06,0,.12,0,.18,4.56-1.76,9.2-3.66,13.84-5.71S245,257.13,249.54,254.83Zm-73.3,25.94a9.46,9.46,0,0,1-1.56-2.15c-.4-.74-2-4.15-4.27-8.84l-.86-1.82c-.27-.56-.51-1.08-.73-1.51l-.6-1-.19-.22a1,1,0,0,0-.66-.38,2.76,2.76,0,0,0-1.41.27h0l-.08,0a27.07,27.07,0,0,1-2.28,1.49l-.08.06h0a20.91,20.91,0,0,0-1.71,1.69,23,23,0,0,0-4.1,7.58,29,29,0,0,0-1.43,8.16c0,.42,0,.82,0,1.21,1.23-.37,2.59-.72,4.05-1.07,2.21-.61,4.66-1.19,7.25-1.71l3.54-.66Zm-20.3-5.62a30.86,30.86,0,0,1,2.07-6.36,18.2,18.2,0,0,1-3.59.38,65.42,65.42,0,0,1-7.39-.56l-6.47-.7-4.26-.46a15.59,15.59,0,0,1,.35,4.52c-.06.71-.35,3.38-.7,7.27,0,.4-.07.82-.11,1.24l1.07.53a79,79,0,0,1,8.81,5.22l1.74,1.18,1.48,1.14.27.21a1,1,0,0,1,.18-.3l-.83-.9.88.85c.64-.76,2.42-1.62,5-2.48.35-.12.72-.24,1.1-.35-.06-.44-.11-.91-.15-1.4A32.35,32.35,0,0,1,155.94,275.15Zm-24.26-5.28a13.93,13.93,0,0,1,.48-2.87l-2.6-.28-12.33-1.38c-1-.12-2-.26-3-.4a10.53,10.53,0,0,1-.18,1.94c-.06.3-.23,1-.46,2s-.52,2.33-.83,3.92l.52.1a97.73,97.73,0,0,1,12.35,3.34l.94.34,1.11.41c1,.36,2,.76,3,1.15l.85.36c0-.5,0-1,0-1.46C131.52,273.24,131.62,270.58,131.68,269.87Z"/><path class="cls-1" d="M295.7,267.29a49.26,49.26,0,0,1,2.69,20.89,34.88,34.88,0,0,1-2.65,10.76,25.26,25.26,0,0,1-5.83,8.54,23.57,23.57,0,0,1-7.56,4.81,26.67,26.67,0,0,1-7.57,1.71,33.23,33.23,0,0,1-12-1.53,46.3,46.3,0,0,1-5.69-2.11,25.12,25.12,0,0,1-6.5-4.23l-2.79-.21a42.58,42.58,0,0,0-1.29-12.74,167.86,167.86,0,0,0-5.2-16.25c-.89-2.54-1.71-4.83-2.42-6.84l-1.8-5.1.21-.11c1.14,2.68,2.84,6.72,4.94,11.68a169.84,169.84,0,0,1,6.23,16.09,51,51,0,0,1,1.82,8.35c2.06.09,5.28,1.14,8.7,2.73.68.3,2.49,1.21,5.17,2.21a30.1,30.1,0,0,0,10.43,2.11,22.89,22.89,0,0,0,6.54-1,19.08,19.08,0,0,0,6.52-3.54c4.11-3.31,7-9.26,7.93-15.88a45.38,45.38,0,0,0,.26-10,49,49,0,0,0-1.82-9.51,71.31,71.31,0,0,0-6.78-15.3c-2.41-4.18-4.64-7.45-6.18-9.75l-2-2.9,0,0,2.12,2.73c1.65,2.17,4.05,5.25,6.7,9.27A70.69,70.69,0,0,1,295.7,267.29Z"/><path class="cls-3" d="M293.45,182.91l4.43,15.6a8.42,8.42,0,0,0-.61-.73,9.12,9.12,0,0,0-2.55-1.84c-.29-.13-1.07-.48-2.34-1.16l-2.32-1.25a22,22,0,0,0-3.3-1.45,13.74,13.74,0,0,0-4.41-.83,8.83,8.83,0,0,0-5.11,1.5,10.55,10.55,0,0,0-3.31,3.95,23.75,23.75,0,0,0-1.64,4.33,43.45,43.45,0,0,0-1.74,10.61,45.28,45.28,0,0,0-6.34-.86,35.09,35.09,0,0,0-13.65,1.48,18.66,18.66,0,0,0-6.14,3.51,17.31,17.31,0,0,0-4,5.38,24.68,24.68,0,0,0-2.28,9.71,32.2,32.2,0,0,0-7.56-3.4,20.34,20.34,0,0,0-7.66-.83,16.88,16.88,0,0,0-3.9.79,18.21,18.21,0,0,0-3.62,1.72A23.55,23.55,0,0,0,206.28,241a34.06,34.06,0,0,0-1.72,7.25l-.16-.07a16.67,16.67,0,0,0-6.2-1.33,33.2,33.2,0,0,0-6.18.47c-2,.31-4,.69-6,1.2-.54.14-1.08.29-1.61.45l-1.37.44c8.49-7.41,18-14.59,27.42-21.7,4.89-3.67,9.76-7.34,14.49-11s9.27-7.39,13.75-10.81a150.17,150.17,0,0,1,13.27-9.24,81.66,81.66,0,0,1,12.87-6.43,102.62,102.62,0,0,1,11.6-3.68c3.51-.91,6.6-1.57,9.15-2.09Z"/><path class="cls-1" d="M295.51,109.22a6.08,6.08,0,0,1,1.11,3.61,4.33,4.33,0,0,1-.75,2.38,3,3,0,0,1-.6.65,3.48,3.48,0,0,0,.36-.77,3.84,3.84,0,0,0,0-2.16,4.52,4.52,0,0,0-1.6-2.33,4.62,4.62,0,0,0-2.88-.78,7.27,7.27,0,0,0-3,.82,6.16,6.16,0,0,0-1.18.75,5.87,5.87,0,0,0-.87.85,4.42,4.42,0,0,0-.85,1.44,5.19,5.19,0,0,0-.12.57c-.06.22-.45.28-1,.55a16.23,16.23,0,0,1-2.12,1,2.32,2.32,0,0,1-2.39-.5,3,3,0,0,1-.6-3,6.89,6.89,0,0,1,1-1.84,10,10,0,0,1,2.72-2.46,11.24,11.24,0,0,1,4.18-1.56,10.81,10.81,0,0,1,4.72.22A7.15,7.15,0,0,1,295.51,109.22Z"/><path class="cls-4" d="M295.88,277.64a45.38,45.38,0,0,1-.26,10c-.89,6.62-3.82,12.57-7.93,15.88a19.08,19.08,0,0,1-6.52,3.54,22.89,22.89,0,0,1-6.54,1,30.1,30.1,0,0,1-10.43-2.11c-2.68-1-4.49-1.91-5.17-2.21-3.42-1.59-6.64-2.64-8.7-2.73a51,51,0,0,0-1.82-8.35,169.84,169.84,0,0,0-6.23-16.09c-2.1-5-3.8-9-4.94-11.68,4.59-2.24,9.17-4.62,13.66-7.14s8.86-5,13.05-7.68c2.1-1.33,4.23-2.58,6.25-3.93l6-4,2.86-1.93,2,2.9c1.54,2.3,3.77,5.57,6.18,9.75a71.31,71.31,0,0,1,6.78,15.3A49,49,0,0,1,295.88,277.64Z"/><path class="cls-1" d="M293.47,122.48c.2.38,0,.88-.42,1.34a5.17,5.17,0,0,1-2,1.14,11.87,11.87,0,0,1-2.23.53c-.59.07-1,.07-1.07-.1s-.06-.55-.22-1.26a7.26,7.26,0,0,0-1.18-2.48,8.09,8.09,0,0,0-2.21-2,9.87,9.87,0,0,0-.94-.49l-.38-.16.4-.11a8.16,8.16,0,0,1,1.12-.22,9.92,9.92,0,0,1,3.67.28,10.79,10.79,0,0,1,3.75,1.85A7.35,7.35,0,0,1,293.47,122.48Z"/><path class="cls-1" d="M293.07,224.49a3.65,3.65,0,0,1,.36,3,.93.93,0,0,1-.26.36,1.43,1.43,0,0,1-.69.32,4.52,4.52,0,0,1-2.61-.51,24.31,24.31,0,0,1-4.85-3c-.42-.34-1.56-1.27-3.34-2.47a43.56,43.56,0,0,0-7.29-4c-.87-.37-1.78-.74-2.74-1.07l-1-.35a41.94,41.94,0,0,0-6.92-1.68,31.57,31.57,0,0,0-12.25.19,15.65,15.65,0,0,0-5.42,2.47,14.54,14.54,0,0,0-3.89,4.31,22.83,22.83,0,0,0-2.94,8.9l-1.13-.15a24.68,24.68,0,0,1,2.28-9.71,17.31,17.31,0,0,1,4-5.38,18.66,18.66,0,0,1,6.14-3.51,35.09,35.09,0,0,1,13.65-1.48,45.28,45.28,0,0,1,6.34.86l1.7.33s0,0,0,.05c1.43.34,2.79.74,4.08,1.17a47.1,47.1,0,0,1,8.59,3.85,36.21,36.21,0,0,1,4,2.59A13.92,13.92,0,0,1,293.07,224.49Z"/><path class="cls-4" d="M293.17,227.89l.12.17-1.8,1.31c-1.64,1.16-3.27,2.45-5.07,3.6L281,236.64l-2.83,1.9-2.95,1.82-6.07,3.75c-2.06,1.26-4.22,2.41-6.35,3.64-1.16.68-2.33,1.34-3.52,2a7.71,7.71,0,0,0-1.05-1.84,28.92,28.92,0,0,0-4.36-4.51c-.46-.39-1.74-1.41-3.63-3.06s-4.39-3.91-7.58-6.41c-.57-.44-1.17-.88-1.79-1.31-.34-.25-.7-.49-1.06-.72-.19-.13-.4-.25-.59-.37,0-.17,0-.34.07-.51a22.83,22.83,0,0,1,2.94-8.9,14.54,14.54,0,0,1,3.89-4.31,15.65,15.65,0,0,1,5.42-2.47,31.57,31.57,0,0,1,12.25-.19,41.94,41.94,0,0,1,6.92,1.68l1,.35c1,.33,1.87.7,2.74,1.07a43.56,43.56,0,0,1,7.29,4c1.78,1.2,2.92,2.13,3.34,2.47a24.31,24.31,0,0,0,4.85,3,4.52,4.52,0,0,0,2.61.51A1.43,1.43,0,0,0,293.17,227.89Z"/><path class="cls-1" d="M291.57,427.35v2.31h-.06c-3.2,0-6.43-.15-9.7-.22l-4.92-.14-2.47-.07-2.48-.16-10-.62a451.86,451.86,0,0,1-74.44-11.86l-3.85-.93c-1.26-.31-2.47-.67-3.67-1l-6.89-1.91c-2.18-.63-4.28-1.14-6.2-1.78l-5.43-1.71c-3.35-1.07-6.18-1.95-8.37-2.67L148.56,405c-3.33-1.24-6.48-2.49-9.31-3.71s-5.26-2.59-7.31-3.74c-3.44-1.94-5.63-3.54-6-4.48l1.37-.89a28.45,28.45,0,0,1,6.38,1.18c2.24.6,4.85,1.43,7.73,2.42s6.07,2,9.35,3.19l4.46,1.69,8.19,2.82,5.3,1.83c1.89.68,3.94,1.23,6.08,1.91l6.74,2.07c1.18.35,2.37.75,3.6,1.09l3.77,1a452.27,452.27,0,0,0,73.36,13.91l9.89.91,2.46.23,2.45.15,4.89.29C285.18,427,288.39,427.26,291.57,427.35Z"/><path class="cls-1" d="M290.07,160.82l-1.2.16a31.89,31.89,0,0,0-3.58.73,47.68,47.68,0,0,0-11.93,5.21c-4.67,2.74-9.84,6.48-15.36,10.55s-11.23,8.69-16.84,13.52c-2.8,2.41-5.56,4.89-8.26,7.39s-5.26,5-7.88,7.52a42.4,42.4,0,0,1-8.69,6.64,21.84,21.84,0,0,1-5.11,2,22.7,22.7,0,0,1-5.15.63c-3.24,0-5.92-.22-8.48-.36l-1.28-.09h-.15c-2-.14-3.75-.28-5.33-.42-3.92-.34-6.59-.65-7.58-.77-7.89-1-14-3.62-13.66-5.35s6.79-2,14.51-1l7.39,1c1.92.25,4.14.54,6.62.82s5.29.63,8,.74a16.18,16.18,0,0,0,8-1.6,37.21,37.21,0,0,0,8-5.51c2.65-2.28,5.45-4.75,8.3-7.11s5.79-4.73,8.75-7c5.91-4.57,12-8.87,17.69-12.7S268,168.56,272.88,166a48.24,48.24,0,0,1,12.35-4.6,32.52,32.52,0,0,1,3.63-.53Z"/><path class="cls-1" d="M281.83,360a1,1,0,0,1,0,.24c-.43,2-7.38,4.07-16.13,4.39-1.14,0-4.21.09-8.75-.07a114.85,114.85,0,0,1-17.43-1.86c-1.72-.28-3.49-.77-5.31-1.17s-3.67-1-5.53-1.67-3.76-1.39-5.67-2.18-3.8-1.75-5.67-2.82c-7.53-4.15-14.5-10-20.89-16.29-4.13-4.06-8.05-8.24-11.83-12.31l2-1.84c3.89,3.78,7.91,7.64,12.06,11.32,6.54,5.78,13.5,11,20.7,14.54,1.78.91,3.61,1.61,5.38,2.34s3.59,1.29,5.38,1.75,3.53.88,5.23,1.29,3.4.66,5,.84a112.86,112.86,0,0,0,16.65.95c4.37,0,7.36-.22,8.47-.25C274.33,356.86,281.71,357.9,281.83,360Z"/><path class="cls-1" d="M276,23.72s-3.82,0-9.56.2c-2.88.12-6.23.31-9.83.6a82.47,82.47,0,0,0-11,1.43,31.89,31.89,0,0,0-5.1,1.54,28.35,28.35,0,0,0-4.41,2.32,35.9,35.9,0,0,0-6.87,6.05l-.69.79a74.43,74.43,0,0,1,7.77-.31,78.85,78.85,0,0,1,19,2.51c2.48.7,4.5,1.3,5.87,1.83l2.13.78-2.25-.24c-.93-.12-2.14-.21-3.56-.28l-2.47-.1A76.42,76.42,0,0,0,237,42.71a75.14,75.14,0,0,0-14.57,5L225,48.82c4.71,2.1,9.21,4.36,12.5,6.15,2.48,1.34,4.29,2.38,5,2.82l.34.2-22.61-9.3-.52.25c-.69.32-1.32.67-1.92,1l25.05,8c-.28-.05-2.61-.53-6-1.13-3.65-.64-8.54-1.34-13.5-1.85-4.49-.46-9-.74-12.75-.89h0a6,6,0,0,1-1.46.31,6.25,6.25,0,0,1-2.35-.17A6.83,6.83,0,0,1,206,54h0l-2,0,.38.25a54.58,54.58,0,0,1,16.33,17.25c.76,1.33,1.37,2.42,1.74,3.22a.3.3,0,0,1,0,.08l-.59.16c-.64-.56-1.57-1.28-2.68-2.12a52.69,52.69,0,0,0-9.23-5.39A51.41,51.41,0,0,0,199.87,64c-2.88-.63-4.94-.88-5.39-1a2.28,2.28,0,0,1-1.2-1c-.92.89-1.83,1.75-2.74,2.57l1,1.2c2.33,2.87,5.12,6.62,7.63,10.43,2.32,3.54,4.42,7.11,6,9.93l-2.4.88c-2.32-1.93-5.21-4.22-8.21-6.39-3.54-2.57-7.23-5-10.16-6.75-1-.63-1.94-1.18-2.74-1.65-.57.45-1.13.89-1.68,1.3,2.52,5.19,8.62,19,10.54,23.38l-1,0c-4.3-3.55-16.18-13.36-19.78-16.63q-.84.4-1.68.72a3.84,3.84,0,0,1,1.84,2.53c.08.59.11,3.25.32,6.94a118.67,118.67,0,0,0,1.5,13.08c.14.8.29,1.59.45,2.38a3,3,0,0,1,1.61-1.19,3,3,0,0,1,1.75,5.83,3,3,0,0,1-.93.12l-.55,3-2.76,1.16c-1.78-2.6-3.76-5.77-5.61-9.11a111.45,111.45,0,0,1-6-12.84c-.37-1-.7-1.86-1-2.68l-.13.05c-.37.14-1.07.37-2.05.67-.83.22-1.87.46-3.08.73-.65,1.53-3.2,6.6-5.14,12a112,112,0,0,0-3.63,12l-.09,0c-.13-.46-.5-1.79-1-3.68-.57-2.35-1.22-5.55-1.7-8.88a91.91,91.91,0,0,1-.87-9.32l-.2,0c-.59.06-1.2.11-1.81.15h0c0,.06,0,.14,0,.2a5,5,0,0,1-.54,1.77A2.63,2.63,0,0,1,137.35,97a5.51,5.51,0,0,1-.67.3l-1.21.58a17.47,17.47,0,0,0-1.68.84c-.61.36-1.35.69-2,1.18-2.89,1.8-6.41.71-9.19,4.37s-8.87,9.88-9.89,13.28c-.25.9-2.15,5.06-3.9,9l-1-.09c-.86-.08-1.65-.13-2.36-.15l-.35-.07a71.43,71.43,0,0,1,4.86-13.89c1.64-3.52,8.09-9.89,8.76-11.29l-2.86-.08a39.57,39.57,0,0,0-14.49,6.09A42.6,42.6,0,0,0,89.06,120a45,45,0,0,0-2.76,5.36c-.49,1.17-.78,1.92-.85,2.09,0-.18.12-1,.32-2.25a44.16,44.16,0,0,1,1.47-6A46.21,46.21,0,0,1,97,102.25c.28-.31.58-.6.87-.9-2,.15-4.12.33-6.19.55a56.46,56.46,0,0,0-9.58,1.67,20.7,20.7,0,0,0-7.31,3.64A15,15,0,0,0,71,111.68a12.44,12.44,0,0,0-.72,1.54c-.1.28-.17.46-.2.53s0-.27.06-.56a12.3,12.3,0,0,1,.35-1.71,16.1,16.1,0,0,1,2.91-5.67,23.69,23.69,0,0,1,7.14-6,59.44,59.44,0,0,1,9.76-4.2l1.56-.53c-.46-.31-1-.66-1.56-1a77.81,77.81,0,0,0-8.22.82,71.38,71.38,0,0,0-8.25,1.85,68.54,68.54,0,0,0-20.45,10,66.59,66.59,0,0,0-8,6.68c-.93.86-1.58,1.6-2,2.09l-.67.7c.07-.11.26-.38.56-.8S44.19,114,45,113a67.33,67.33,0,0,1,7.11-7.85A73,73,0,0,1,64.22,96,76,76,0,0,1,72,91.87a73.88,73.88,0,0,1,8-3,54.37,54.37,0,0,0-11.5-2.79A86.32,86.32,0,0,0,50,85.75c-2.54.21-4.65.47-6.13.66l-2.27.32c.17-.07.92-.38,2.14-.85,1.39-.54,3.39-1.28,5.86-2.1a88.94,88.94,0,0,1,19-4.11,58.92,58.92,0,0,1,10.37-.13l0,0A89.21,89.21,0,0,1,71,74c-1.75-1.39-2.8-2.21-2.93-2.31l3.24,1.85a88.66,88.66,0,0,0,8.82,4.39l3,1.17c1,.38,2.05.87,3.18,1.19l2.38.76.15,0,.81.2c1.14.31,2.2.64,3.17,1,.18,0,.36.08.53.12l3.76.93c1.27.3,2.59.47,3.91.72,1,.2,1.93.36,2.92.49,1.69.23,3.4.39,5.11.58A96.91,96.91,0,0,0,139.09,83l.64-.14.89-.19c.5-.11,1-.28,1.45-.4l2.7-.78c1.73-.44,3.22-1,4.52-1.48l3.23-1.14c.82-.36,1.41-.6,1.74-.72s.81-.27,1.2-.38a8.38,8.38,0,0,1,2-3.59,18.81,18.81,0,0,1,3.14-3,32.75,32.75,0,0,1,4.16-2.8,135.34,135.34,0,0,0,17.49-10.91c4.49-3.25,9.46-7.21,14.62-11.61,1.78-1.5,3.58-3.06,5.39-4.64h0c3.47-3,7-6.14,10.55-9.24,5.41-4.71,10.85-9.35,16.13-13.43A166.19,166.19,0,0,1,243.82,8.22,118.75,118.75,0,0,1,255,2.17c1.38-.65,2.49-1.09,3.23-1.43l1.12-.48-1.06.61c-.69.42-1.74,1-3,1.79A119.36,119.36,0,0,0,245,9.86a162.7,162.7,0,0,0-13.35,11.81c-.33.31-.66.65-1,1,.51-.23,1-.46,1.58-.68a35.63,35.63,0,0,1,6.3-1.8,38.26,38.26,0,0,1,6.43-.59,87.7,87.7,0,0,1,11.8.89c3.64.46,7,1,9.86,1.46C272.32,22.9,276,23.72,276,23.72Zm-102.66,87.9.2-1.06a3.54,3.54,0,0,1-.52-.25C173.17,110.76,173.27,111.19,173.38,111.62Z"/><path class="cls-1" d="M261.64,161.47l.69,1.88c-.12.05-12.13,5-24.24,10.27-8.82,3.84-17.85,8-22.71,10.2l-3.73,1.7c-.65.28-1.31.52-2,.73a6.52,6.52,0,0,1-1.89,1c-.21.08-.74.23-1.51.46-2.63.77-8.1,2.37-13.36,4.23-6.72,2.33-13.17,5.06-13.23,5.09l-.91-1.78c.06,0,6.14-3.66,12.61-6.9l.68-.35-.63-.43,1.62-.22.11.11c5.85-2.9,11.76-5.4,12.74-5.72a5.25,5.25,0,0,1,.81-.22,19.76,19.76,0,0,1,2.64-1.35l.18-.08a5,5,0,0,0,0-.55l1.29,0c4.13-1.63,15.23-5.85,25.81-9.58C249.16,165.53,261.52,161.51,261.64,161.47Z"/><path class="cls-1" d="M257.74,54.68l-.74.88-.14,1-.64-.09c-.07.09-.15.17-.23.26l-.41-.35-5.2-.72a3,3,0,0,1-5,1.3,3.12,3.12,0,0,1-.51-.62,3,3,0,0,1,5.2-3.18,3,3,0,0,1,.43,1.51l5.89.82,1-1.09Z"/><path class="cls-5" d="M242.9,58l-.34-.2L245.4,57a3,3,0,0,0,5-1.3l5.2.72c-2.28,2.43-4.93,5.19-8,8.17-3.94,3.79-8.47,7.93-13.49,12.16l-1.09-6.89a3.15,3.15,0,0,0,.84-.42,3.07,3.07,0,1,0-1.83.58l1.1,6.89.09.59-.37.31L226,77.38a3,3,0,0,0-3.51-2.66.3.3,0,0,0,0-.08c-.37-.8-1-1.89-1.74-3.22a54.58,54.58,0,0,0-16.33-17.25l-.38-.25,2,0h0a6.83,6.83,0,0,0,.83.29,6.25,6.25,0,0,0,2.35.17,6,6,0,0,0,1.46-.31h0c3.72.15,8.26.43,12.75.89,5,.51,9.85,1.21,13.5,1.85C240.29,57.46,242.62,57.94,242.9,58Z"/><path class="cls-4" d="M235.84,261.32c-4.64,2.05-9.28,3.95-13.84,5.71,0-.06,0-.12,0-.18a9.41,9.41,0,0,0-.78-1.77,25.48,25.48,0,0,0-3-4.09c-.33-.39-1.27-1.36-2.68-3a63.32,63.32,0,0,0-6.05-6.49,25.31,25.31,0,0,0-2.62-2c-.28-.18-.56-.36-.86-.53a31.08,31.08,0,0,1,2.27-7.05c1.84-3.94,4.88-7.71,8.75-9.68a14.48,14.48,0,0,1,12.16-.18,32,32,0,0,1,9.27,5.95c0,.13,0,.29.05.42l.44.41c0-.13,0-.28,0-.41l.17.15c.38.34.73.69,1.09,1l.46.45c2,2,3.81,3.86,5.29,5.33,1.83,1.84,3.18,3.07,3.7,3.51A15.69,15.69,0,0,0,255,252l-5.49,2.84C245,257.13,240.43,259.29,235.84,261.32Z"/><path class="cls-1" d="M197.51,317.07a11.71,11.71,0,0,1-2.25,3.35,12.23,12.23,0,0,1-3.63,2.59,14.92,14.92,0,0,1-4.55,1.35,4.38,4.38,0,0,1-.51,0l-2,1.84q-3.1-3.33-6.09-6.52l-15.26-16.39-11.4-12.23.18-.18,1.13,1.1L164,302.48l5.92,5.74L180,318l1,1h0a9.41,9.41,0,0,1,1.23-.37,37.08,37.08,0,0,1,4.1-.64,11.46,11.46,0,0,0,2.82-.6,6.51,6.51,0,0,0,2-1.15,5.71,5.71,0,0,0,1.68-2.3,11,11,0,0,0,.75-3.81c0-.39,0-.79,0-1.21h0v0a5.55,5.55,0,0,1-.08-1.95h0c0-.58-.09-1.16-.14-1.78-.29-3.6-.59-7.4-.89-11.17s-.58-7.5-.85-11l2-.37c.65,3.46,1.34,7.19,2.05,10.93s1.39,7.46,2,11c.25,1.32.5,2.69.67,4.09,1.58,1.62,3.43,3.78,5.41,6.09a50.1,50.1,0,0,0,4.44,4.64,35.31,35.31,0,0,0,4.5,3.45,26.56,26.56,0,0,0,6.17,3,24.51,24.51,0,0,0,16.19-.16,18,18,0,0,0,7.28-5.13,22,22,0,0,0,4.35-8.34,29.52,29.52,0,0,0,1.07-6.25l2.79.21a33.09,33.09,0,0,1-.76,6.83,25.34,25.34,0,0,1-4.48,9.93,22.21,22.21,0,0,1-8.53,6.79A27.09,27.09,0,0,1,226.81,332a31.42,31.42,0,0,1-9.39-1,35.59,35.59,0,0,1-13.12-6.93,46.15,46.15,0,0,1-5.33-5.13C198.45,318.31,198,317.69,197.51,317.07Z"/><path class="cls-4" d="M246.55,293.18a42.58,42.58,0,0,1,1.29,12.74,29.52,29.52,0,0,1-1.07,6.25,22,22,0,0,1-4.35,8.34,18,18,0,0,1-7.28,5.13,24.51,24.51,0,0,1-16.19.16,26.56,26.56,0,0,1-6.17-3,35.31,35.31,0,0,1-4.5-3.45,50.1,50.1,0,0,1-4.44-4.64c-2-2.31-3.83-4.47-5.41-6.09-.17-1.4-.42-2.77-.67-4.09-.66-3.56-1.36-7.3-2-11s-1.4-7.47-2.05-10.93c0-.07,0-.14,0-.21.69-.21,1.39-.42,2.1-.65l.79-.27.19-.07,1.86-.63A320,320,0,0,0,237.13,265l1.8,5.1c.71,2,1.53,4.3,2.42,6.84A167.86,167.86,0,0,1,246.55,293.18Z"/><path class="cls-1" d="M247.46,75.68a3,3,0,1,1-4.9,3.61l-7.22-.39,0-1,6.68.36a3,3,0,0,1,5.39-2.58Z"/><path class="cls-1" d="M246.11,129.41l.32.68s-1,.52-2.83,1.5c-1.61.87-4.19,2.33-7.34,4.28-5.65,3.47-13.27,8.77-21.45,14.93-4.33,3.27-7.93,6.2-11,8.95-1,.92-2,1.86-3,2.82a23.87,23.87,0,0,1,2.37,1,21.4,21.4,0,0,1,3.57,2.23,12.32,12.32,0,0,1,3.26,3.61,10,10,0,0,1,1.22,4.57,22.57,22.57,0,0,1-.1,3.77c-.07.61-.17,1.21-.28,1.81l-1.29,0a15.81,15.81,0,0,0,0-1.82,20.9,20.9,0,0,0-.5-3.42,7.55,7.55,0,0,0-1.44-3.25,12.74,12.74,0,0,0-6-3.55,19.67,19.67,0,0,0-3.49-.74l-.32-.05a4.82,4.82,0,0,1-.79-.22c-.7.74-1.38,1.5-2,2.26-2,2.33-3.72,4.45-5.1,6.23l-.16.36a14.16,14.16,0,0,0-.77,2,7,7,0,0,0,.25,4.35,14.21,14.21,0,0,0,2.58,4.2c.56.66,1,1.16,1.32,1.46l-1.62.22c-.24-.17-.51-.35-.8-.57a16.71,16.71,0,0,1-4.09-4.11,11,11,0,0,1-1.12-2.11c-1.37,1.73-4.78,5.77-6.52,5.77a.84.84,0,0,1-.51-.16.91.91,0,0,1-.35-.64c-.2-1.4,1.57-4.87,4.29-8.45l.42-.53c.5-.63,1.33-1.68,2.45-3,0-.05,0-.1,0-.14l0-.09a2.4,2.4,0,0,1,1.3-1.4c1.48-1.74,3.3-3.8,5.42-6a103.46,103.46,0,0,1,9.63-8.87c3.27-2.66,7.07-5.46,11.63-8.55,8.51-5.77,16.43-10.72,22.32-13.93,3.25-1.8,5.93-3.13,7.6-3.93C245,129.88,246.11,129.41,246.11,129.41Z"/><path class="cls-1" d="M237.92,86.47a3.09,3.09,0,1,1-3.41-1.08l1-.16A3,3,0,0,1,237.92,86.47Z"/><path class="cls-1" d="M234.54,65.13a3,3,0,0,1-.65,4.26,3.15,3.15,0,0,1-.84.42l1.09,6.89-1,.16L232.06,70a3,3,0,1,1,2.48-4.84Z"/><path class="cls-5" d="M208,91.61l-.63-1.27a3,3,0,0,0-1.9-3.65l-.3-.55c-1.54-2.82-3.64-6.39-6-9.93-2.51-3.81-5.3-7.56-7.63-10.43l-1-1.2c.91-.82,1.82-1.68,2.74-2.57a2.28,2.28,0,0,0,1.2,1c.45.13,2.51.38,5.39,1a51.41,51.41,0,0,1,10.07,3.34,52.69,52.69,0,0,1,9.23,5.39c1.11.84,2,1.56,2.68,2.12a3.55,3.55,0,0,0-.72.38,3,3,0,0,0,3.61,4.91,3,3,0,0,0,1.15-1.79h0l5.84.32c-1.19,1-2.39,2-3.63,2.93A246.85,246.85,0,0,1,204.47,98l.27-5.41a2.67,2.67,0,0,0,.91-.24,3,3,0,0,0,1.48-1.45Z"/><path class="cls-1" d="M226,77.38l0,1h0a3,3,0,0,1-1.15,1.79,3,3,0,0,1-3.61-4.91,3.55,3.55,0,0,1,.72-.38l.59-.16A3,3,0,0,1,226,77.38Z"/><path class="cls-1" d="M217.63,101.29a3,3,0,0,1-5.54,2.52L205.33,102l.26-1,6.23,1.68a3,3,0,0,1,5.81-1.41Z"/><path class="cls-4" d="M213.43,266.14a11.88,11.88,0,0,0,3.55,2.77c-7.07,2.6-13.83,4.8-20,6.6l-2.83.84c-.53.16-1.06.3-1.59.43l-1,.27-.1,0-5.15,1.34c-2,.54-3.79,1-5.5,1.35A10.4,10.4,0,0,0,179.4,274c-.41-.75-2.34-3.86-5-8.12l-1-1.64c-.35-.55-.73-1.2-1.23-1.9A9.79,9.79,0,0,0,171,261c.15-.24.3-.48.47-.71l0,0,0,0L175.8,256l.27-.26h0a18.39,18.39,0,0,1,3.11-1.63,28.63,28.63,0,0,1,7.38-1.93c1.91-.27,3.85-.4,5.79-.48a29.68,29.68,0,0,1,5.48.19,12.09,12.09,0,0,1,6.32,2.76c.31.26.61.52.9.81l.46.46.68.73a72.88,72.88,0,0,1,4.48,5.94C212,264.4,213,265.69,213.43,266.14Z"/><path class="cls-6" d="M209.53,177.71a15.81,15.81,0,0,1,0,1.82,5,5,0,0,1,0,.55l-.18.08a19.76,19.76,0,0,0-2.64,1.35,5.25,5.25,0,0,0-.81.22c-1,.32-6.89,2.82-12.74,5.72l-.11-.11c-.28-.3-.76-.8-1.32-1.46a14.21,14.21,0,0,1-2.58-4.2,7,7,0,0,1-.25-4.35,14.16,14.16,0,0,1,.77-2l.16-.36c1.38-1.78,3.08-3.9,5.1-6.23.66-.76,1.34-1.52,2-2.26a4.82,4.82,0,0,0,.79.22l.32.05a19.67,19.67,0,0,1,3.49.74,12.74,12.74,0,0,1,6,3.55,7.55,7.55,0,0,1,1.44,3.25A20.9,20.9,0,0,1,209.53,177.71Z"/><path class="cls-1" d="M207.32,90.34l.63,1.27-.82-.74a3,3,0,0,1-1.48,1.45,2.67,2.67,0,0,1-.91.24l-1,0a3,3,0,0,1-1-5.49l2.4-.88.3.55a3,3,0,0,1,1.9,3.65Z"/><path class="cls-1" d="M206.07,109.87a3,3,0,1,1-4-1.52,3.31,3.31,0,0,1,.91-.24l.28-5.56,1,0-.28,5.56A3,3,0,0,1,206.07,109.87Z"/><path class="cls-5" d="M203.75,92.51l-.32,6.1,0,0c-.69.42-1.4.83-2.1,1.24l-.94-.25-4.13-1.12A3.12,3.12,0,0,0,196,97a3,3,0,0,0-4-1.51,3,3,0,0,0-1.49,1.47c-1.92-4.38-8-18.19-10.54-23.38.55-.41,1.11-.85,1.68-1.3.8.47,1.72,1,2.74,1.65,2.93,1.79,6.62,4.18,10.16,6.75,3,2.17,5.89,4.46,8.21,6.39a3,3,0,0,0,1,5.49Z"/><path class="cls-1" d="M196.23,98.5l4.13,1.12-.26,1L196,99.47a3,3,0,0,1-1.5,1.51,3,3,0,0,1-4.23-3.4l-.76-.62,1,0A3,3,0,0,1,192,95.44,3,3,0,0,1,196,97,3.12,3.12,0,0,1,196.23,98.5Z"/><path class="cls-5" d="M196,99.47l4.13,1.11a245,245,0,0,1-23.69,12.08c-.8.36-1.6.7-2.4,1l.55-3a3,3,0,0,0,.93-.12,3,3,0,0,0-1.75-5.83,3,3,0,0,0-1.61,1.19c-.16-.79-.31-1.58-.45-2.38a118.67,118.67,0,0,1-1.5-13.08c-.21-3.69-.24-6.35-.32-6.94A3.84,3.84,0,0,0,168,81.05q.84-.31,1.68-.72c3.6,3.27,15.48,13.08,19.78,16.63l.76.62a3,3,0,0,0,4.23,3.4A3,3,0,0,0,196,99.47Z"/><path class="cls-1" d="M196.16,214.7h.15a13.39,13.39,0,0,1-.65,1.54,13.66,13.66,0,0,1-2.44,3.22,21,21,0,0,1-4.21,3.17,40.52,40.52,0,0,1-5.64,2.7c-2.07.81-4.23,1.58-6.38,2.56a25,25,0,0,0-6.05,3.66,11.11,11.11,0,0,0-3.69,5.67c-.33,1.15-.57,2.42-.91,3.75a11.81,11.81,0,0,1-1.82,4.18,6.92,6.92,0,0,1-4.43,2.72,14.34,14.34,0,0,1-4.44-.1l-3-.44-.74-.1-10-1.45c-8.22-1.2-14.21-2.1-15.56-2.34-1-.18-1.86-.39-2.71-.63-.57.33-1.17.7-1.82,1.13l-.61.41-.58-1.6.67-.24.68-.23c-.21-.08-.42-.15-.62-.24-1.08,0-2.17,0-3.27-.05a197.88,197.88,0,0,1-19.83-1.23,3.87,3.87,0,0,1-3-2.64,4.56,4.56,0,0,1,.81-4.59c.74-1,7.07-8,12.83-15.25,5.63-7,10.71-14.08,11-14.47-.23.49-4,8.35-8.34,16.25-2.68,4.91-5.6,9.81-7.68,13.17,3.31,1,8.67,2.72,14.15,4.21,1.66-.89,5.32-1.07,9.43-.31,1.36.25,7.27,1.53,15.39,3.33l13.51,3a10.58,10.58,0,0,0,3.07.36,3.08,3.08,0,0,0,2-1A8.34,8.34,0,0,0,163,240c.4-1.16.73-2.43,1.22-3.75a13.9,13.9,0,0,1,2.09-3.81,14.31,14.31,0,0,1,3-2.9,20.85,20.85,0,0,1,3.42-2,35.48,35.48,0,0,1,3.49-1.46c2.3-.84,4.57-1.45,6.64-2.08a38.63,38.63,0,0,0,5.66-2.18,20.55,20.55,0,0,0,4.29-2.72,13.22,13.22,0,0,0,2.6-2.93A14.08,14.08,0,0,0,196.16,214.7Z"/><path class="cls-4" d="M193.64,308.92c0,.42,0,.82,0,1.21a11,11,0,0,1-.75,3.81,5.71,5.71,0,0,1-1.68,2.3,6.51,6.51,0,0,1-2,1.15,11.46,11.46,0,0,1-2.82.6,37.08,37.08,0,0,0-4.1.64A9.41,9.41,0,0,0,181,319h0l-1-1-10.09-9.78L164,302.48,153.16,292l-1.13-1.1-.72-.7a22.57,22.57,0,0,0,3.78.28c.47,0,1,0,1.48,0h.24c1.37,0,2.89-.11,4.51-.26,2.32-.29,4.85-.7,7.5-1.23l3.59-.75c1.7-.4,3.87-1,6.46-1.64s5.6-1.4,8.89-2.44l3.92-1.17c.27,3.48.56,7.21.85,11s.6,7.57.89,11.17c.05.62.1,1.2.14,1.78h0a5.55,5.55,0,0,0,.08,1.95v0Z"/><path class="cls-1" d="M186.18,121.1a3,3,0,0,1-5.83,1.76l-4.16-1.74.39-.92,3.65,1.52a3,3,0,0,1,6-.62Z"/><path class="cls-1" d="M177.35,363.47,174,365.15c-2.14,1.07-5.15,2.64-8.77,4.55-7.22,3.83-16.68,9.15-25.95,14.82-4.11,2.51-8.16,5.09-12,7.62l-1.37.89c-4.33,2.86-8.36,5.61-11.85,8.07-6.91,4.88-11.77,8.53-12.92,9.34-4.63,3.15-9.94,4.64-12.05,3.18a1.9,1.9,0,0,1-.5-.52,42.27,42.27,0,0,1-9.33-3.89c-1.88-1.07-10.17-5.81-21.09-13.2s-24.34-17.75-35.07-30.43a115.15,115.15,0,0,1-13.7-19.76,94.42,94.42,0,0,1-7.94-19.07c-.24-.84-.46-1.67-.67-2.47l-.15-.6,1.14-.28c.31.94.64,1.92,1,2.92a93,93,0,0,0,9,18.06,112.91,112.91,0,0,0,14.57,18.2C37.56,374,51.19,383.16,62.22,389.65s19.51,10.68,21.37,11.74a46.66,46.66,0,0,1,7.94,5.42A21.51,21.51,0,0,1,93.78,405c1.17-.82,6.62-4.22,14.33-8.66s17.76-9.85,28-14.83,20.48-9.57,28.27-12.83c3.9-1.62,7.15-3,9.44-3.84Z"/><path class="cls-4" d="M174.68,278.62a9.46,9.46,0,0,0,1.56,2.15l-5.14,1.14-3.54.66c-2.59.52-5,1.1-7.25,1.71-1.46.35-2.82.7-4.05,1.07,0-.39,0-.79,0-1.21a29,29,0,0,1,1.43-8.16,23,23,0,0,1,4.1-7.58,20.91,20.91,0,0,1,1.71-1.69h0l.08-.06a27.07,27.07,0,0,0,2.28-1.49l.08,0h0a2.76,2.76,0,0,1,1.41-.27,1,1,0,0,1,.66.38l.19.22.6,1c.22.43.46.95.73,1.51l.86,1.82C172.64,274.47,174.28,277.88,174.68,278.62Z"/><path class="cls-1" d="M173.91,184.42l-.27.12a7.64,7.64,0,0,1-.83.36,12.3,12.3,0,0,1-3.17.75,23.24,23.24,0,0,1-10-1.48c-3.52-1.23-6.9-2.69-9.58-3.34-.74-.18-1.42-.32-2.05-.44a5.23,5.23,0,0,1-.11.75,22.74,22.74,0,0,1-2,4.41c-1.2,2.18-2.94,4.65-4.56,7a40.19,40.19,0,0,0-3.89,6.81c-.23.6-.43,1.13-.59,1.61l-.37,0q.09-.76.27-1.8a41.1,41.1,0,0,1,2.47-7.58l-.25.12a7.19,7.19,0,0,1-5.86-.15,9.17,9.17,0,0,1-3-2.34,13.53,13.53,0,0,1-2.1-3.32c-.07-.14-.12-.27-.18-.41l-.23.2a17.92,17.92,0,0,0-4.62,5.93,14.31,14.31,0,0,0-1.21,7.71,11.34,11.34,0,0,0,.36,1.71l-.62.19a12,12,0,0,1-.85-1.51,17,17,0,0,1-1.26-9.21,23.8,23.8,0,0,1,3.49-9.35A25.83,25.83,0,0,1,126,177a2.36,2.36,0,0,1,.34-.24,3,3,0,0,1-1.55-1.5,6.19,6.19,0,0,1-.6-2.64,8.38,8.38,0,0,1,.53-2.92,21.29,21.29,0,0,1,1.2-2.55c.66-1.23,1.45-2.57,2.31-4.31s1.8-3.74,2.68-6c.44-1.12.87-2.3,1.28-3.52.2-.62.39-1.24.6-1.87l.07-.24,0-.09L133,151a1.12,1.12,0,0,0,.1-.4.75.75,0,0,0-.23-.47l-.2-.19-.14-.12-.26-.21-2.1-1.65-4.22-3.3a85.59,85.59,0,0,1-7.43-6.49,40.81,40.81,0,0,1-4.13-4.79l.37-.27a41.84,41.84,0,0,0,4.61,4.1,82.78,82.78,0,0,0,8,5.36l4.59,2.72,2.32,1.39.7.44a5.72,5.72,0,0,1,.85.61,3.45,3.45,0,0,1,1.16,1.65,3.85,3.85,0,0,1,.11,1.59c0,.27-.08.54-.13.82l-.13.67q-.18,1-.39,2c-.27,1.34-.58,2.64-.9,3.89-.65,2.49-1.39,4.77-2.11,6.72-.18.48-.35.95-.53,1.4-.53,1.35-1,2.5-1.37,3.33-.46,1.12-.68,1.81-.79,2.09a12.26,12.26,0,0,1-1.44,2.87l-.55.78h0a22.08,22.08,0,0,1,3.67-.26,28.31,28.31,0,0,1,4.57.38c.46.07.92.16,1.38.26l-.32-.49c-.47-.74-.94-1.54-1.38-2.34a37.81,37.81,0,0,1-2.74-6.53,38.82,38.82,0,0,0,4.3,5.41c.6.63,1.22,1.23,1.83,1.79a16.71,16.71,0,0,0,1.68,1.4,2.17,2.17,0,0,0,1,.43.44.44,0,0,0,.17,0c0-.17-.1-.35-.14-.54a59.38,59.38,0,0,1-.75-6.45,75,75,0,0,1,.18-12,93.89,93.89,0,0,1,1.89-11.29,11.85,11.85,0,0,0,.19-3.63,7.7,7.7,0,0,0-.29-1.33,6.56,6.56,0,0,1,.45,1.3,12.29,12.29,0,0,1,.25,3.73,93.62,93.62,0,0,0-.58,11.29,76.26,76.26,0,0,0,1.12,11.53c.56,3.23,1.19,5.52,1.29,6.05a7.61,7.61,0,0,1,.16,2.13,35.28,35.28,0,0,1,4.37,1.36c2.89,1.1,6.11,3,9.31,4.64a22.37,22.37,0,0,0,9.21,2.66,12.38,12.38,0,0,0,3.15-.32,7,7,0,0,0,.87-.24Zm-30.34-4.92-.26-.13a1.86,1.86,0,0,1-.34,0,5.11,5.11,0,0,1-.72-.12c-.41,0-.83,0-1.25,0-.6,0-1.2,0-1.81.1a26.09,26.09,0,0,0-5.93,1.26l-1.22.45-.3.11a13.62,13.62,0,0,0,.2,2.32,9.69,9.69,0,0,0,2.38,5,6.7,6.7,0,0,0,4.6,2.13,6.27,6.27,0,0,0,.77,0c1.05-2.49,2.08-4.9,2.71-6.83a30.77,30.77,0,0,0,1-4C143.48,179.72,143.53,179.61,143.57,179.5Z"/><path class="cls-1" d="M173.58,128.07a3,3,0,1,1-3.79-2,3,3,0,0,1,.93-.12l1.17-6.27,1,.18-1.17,6.27A3,3,0,0,1,173.58,128.07Z"/><path class="cls-5" d="M171.25,114.87c-1.26.53-2.52,1-3.77,1.52l-2.15-.89a3,3,0,0,0,0-1.57,3.07,3.07,0,1,0-.35,2.49l1.19.5c-5.34,2-10.49,3.79-15.25,5.3-3.43,1-6.65,1.89-9.65,2.56l1.72-3.33a2.82,2.82,0,0,0,.92.16,3,3,0,0,0,.72-6h0a112,112,0,0,1,3.63-12c1.94-5.37,4.49-10.44,5.14-12,1.21-.27,2.25-.51,3.08-.73,1-.3,1.68-.53,2.05-.67l.13-.05c.29.82.62,1.72,1,2.68a111.45,111.45,0,0,0,6,12.84C167.49,109.1,169.47,112.27,171.25,114.87Z"/><path class="cls-1" d="M165.3,113.93a3,3,0,0,1,0,1.57l-.38.92a3,3,0,1,1,.35-2.49Z"/><path class="cls-1" d="M160.62,323.16l3.42,2.7-3.64-2.39c-2.34-1.57-5.78-3.7-9.93-6.23a307.12,307.12,0,0,0-31.85-16.57,307.13,307.13,0,0,0-34.66-13c-2.49-.82-4.86-1.44-7-2.06s-4-1.13-5.71-1.56l-4.14-1.1-2.28-.57a32.79,32.79,0,0,1-4.62-1.63,22.35,22.35,0,0,1-3.64-1.88l-.65-.45h0a19.68,19.68,0,0,1-3.52,3.75l-12.19,9.36c-6.41,5-14.5,11.42-22.29,18-5.75,4.82-11.36,9.68-16.13,13.92l-1.14.28c-.14-.58-.28-1.16-.4-1.72l.82-.9c4.11-4.55,8.88-9.71,13.8-14.84,7.07-7.41,14.48-14.74,20.42-20.41s10.37-9.69,11.43-10.55c4.19-3.47,8.89-4.64,10.42-2.72a1.53,1.53,0,0,1,.17.27h0c.24,0,.5-.07.77-.09a22.25,22.25,0,0,1,4.21.06,35.16,35.16,0,0,1,4.93,1l2.33.69,4.18,1.41c1.67.56,3.61,1.21,5.74,2,1.28.48,2.64,1,4.06,1.51.54.2,1.08.41,1.63.64s.86.33,1.29.51l1.37.55c7.26,2.92,15.7,6.69,24.14,11l.39.2c2.77,1.4,5.53,2.87,8.25,4.38a304.33,304.33,0,0,1,30.63,19.41C155.18,319,158.42,321.38,160.62,323.16Z"/><path class="cls-4" d="M158,268.79a30.86,30.86,0,0,0-2.07,6.36,32.35,32.35,0,0,0-.59,9c0,.49.09,1,.15,1.4-.38.11-.75.23-1.1.35-2.54.86-4.32,1.72-5,2.48l-.88-.85.83.9a1,1,0,0,0-.18.3l-.27-.21-1.48-1.14-1.74-1.18a79,79,0,0,0-8.81-5.22l-1.07-.53c0-.42.07-.84.11-1.24.35-3.89.64-6.56.7-7.27a15.59,15.59,0,0,0-.35-4.52l4.26.46,6.47.7a65.42,65.42,0,0,0,7.39.56A18.2,18.2,0,0,0,158,268.79Z"/><path class="cls-1" d="M148.05,131.68a3,3,0,1,1-3,3l-4-3.3.63-.77,3.59,3A3,3,0,0,1,148.05,131.68Z"/><path class="cls-1" d="M149,203.05a2.56,2.56,0,0,1-.22,2.49,4.19,4.19,0,0,1-1.9,1.51,3,3,0,0,1-2.06.17,20.76,20.76,0,0,0-4.39-1.15c-1.28-.21-2.83-.37-4.52-.56s-3.52-.44-5.29-.77a64,64,0,0,1-7.81-2,1.22,1.22,0,0,1,.07.17l-.19-.21-.49-.16-.3-.11-1-1.25.55.06h.05l.62-.19c0,.09,0,.18.08.26a63.84,63.84,0,0,0,8.62.23c1.71-.07,3.4-.22,5-.41l.63-.07s0-.05,0-.08l.37,0H137c1.28-.15,2.52-.28,3.7-.34a25.06,25.06,0,0,1,3.94.05,14.12,14.12,0,0,1,2.09.37A3.66,3.66,0,0,1,149,203.05Z"/><path class="cls-2" d="M151.89,247.24c-1.2.71-2.66,1.5-4.3,2.38a77,77,0,0,1-30.88,7.72,82.13,82.13,0,0,1-12.7-.48c-.27,0-.52-.06-.78-.09a37.67,37.67,0,0,0,7.06-4c4.17-3,7.84-6.26,10.94-8.36l.61-.41c.65-.43,1.25-.8,1.82-1.13.85.24,1.76.45,2.71.63,1.35.24,7.34,1.14,15.56,2.34Z"/><path class="cls-1" d="M144.6,115.62a3,3,0,0,1-.72,6,2.82,2.82,0,0,1-.92-.16l-.89-.45a3,3,0,0,1,1.81-5.48,3.2,3.2,0,0,1,.63.07l.09,0Z"/><path class="cls-5" d="M143.55,111.91c.46,1.89.83,3.22,1,3.68a3.2,3.2,0,0,0-.63-.07,3,3,0,0,0-1.81,5.48L140,125.07q-2.16.47-4.14.81l-.67-.55-2.4-2a2.94,2.94,0,0,0,.41-1.51,3.07,3.07,0,1,0-1,2.29l2.4,2c-1.21.19-2.37.36-3.45.49-1.3.13-2.49.28-3.57.35l-2.9.17c-1.69,0-2.9.07-3.55,0-4.7,0-8.94-.33-12.27-.62,1.75-3.89,3.65-8.05,3.9-9,1-3.4,7.09-9.66,9.89-13.28s6.3-2.57,9.19-4.37c.69-.49,1.43-.82,2-1.18a17.47,17.47,0,0,1,1.68-.84l1.21-.58a5.51,5.51,0,0,0,.67-.3,2.63,2.63,0,0,0,1.06-1.19,5,5,0,0,0,.54-1.77c0-.06,0-.14,0-.2h0c.61,0,1.22-.09,1.81-.15l.2,0a91.91,91.91,0,0,0,.87,9.32C142.33,106.36,143,109.56,143.55,111.91Z"/><path class="cls-6" d="M143.31,179.37l.26.13c0,.11-.09.22-.12.33a30.77,30.77,0,0,1-1,4c-.63,1.93-1.66,4.34-2.71,6.83a6.27,6.27,0,0,1-.77,0,6.7,6.7,0,0,1-4.6-2.13,9.69,9.69,0,0,1-2.38-5,13.62,13.62,0,0,1-.2-2.32l.3-.11,1.22-.45a26.09,26.09,0,0,1,5.93-1.26c.61-.06,1.21-.09,1.81-.1.42,0,.84,0,1.25,0a5.11,5.11,0,0,0,.72.12A1.86,1.86,0,0,0,143.31,179.37Z"/><path class="cls-2" d="M139,191.72l.25-.12a41.1,41.1,0,0,0-2.47,7.58q-.18,1-.27,1.8s0,.05,0,.08l-.63.07c-1.64.19-3.33.34-5,.41a63.84,63.84,0,0,1-8.62-.23c0-.08,0-.17-.08-.26a11.34,11.34,0,0,1-.36-1.71,14.31,14.31,0,0,1,1.21-7.71,17.92,17.92,0,0,1,4.62-5.93l.23-.2c.06.14.11.27.18.41a13.53,13.53,0,0,0,2.1,3.32,9.17,9.17,0,0,0,3,2.34A7.19,7.19,0,0,0,139,191.72Z"/><path class="cls-2" d="M138.1,175.44l.32.49c-.46-.1-.92-.19-1.38-.26a28.31,28.31,0,0,0-4.57-.38,22.08,22.08,0,0,0-3.67.26h0l.55-.78a12.26,12.26,0,0,0,1.44-2.87c.11-.28.33-1,.79-2.09.34-.83.84-2,1.37-3.33l1,.08a37.81,37.81,0,0,0,2.74,6.53C137.16,173.9,137.63,174.7,138.1,175.44Z"/><path class="cls-1" d="M137,137.77a3,3,0,1,1-3-3.05,3.24,3.24,0,0,1,.93.16l.89.45A3,3,0,0,1,137,137.77Z"/><path class="cls-1" d="M132.75,123.35l2.4,2-.64.77-2.4-2a3,3,0,1,1,1-2.29A2.94,2.94,0,0,1,132.75,123.35Z"/><path class="cls-4" d="M132.16,267a13.93,13.93,0,0,0-.48,2.87c-.06.71-.16,3.37-.18,7.17,0,.47,0,1,0,1.46l-.85-.36c-1-.39-1.95-.79-3-1.15l-1.11-.41-.94-.34a97.73,97.73,0,0,0-12.35-3.34l-.52-.1c.31-1.59.6-2.91.83-3.92s.4-1.7.46-2a10.53,10.53,0,0,0,.18-1.94c1,.14,2,.28,3,.4l12.33,1.38Z"/><path class="cls-1" d="M120.65,242.76l.58,1.6c-3.1,2.1-6.77,5.35-10.94,8.36a37.67,37.67,0,0,1-7.06,4c.26,0,.51.07.78.09a82.13,82.13,0,0,0,12.7.48l.18,2.58a76.55,76.55,0,0,0-15.27,2.65c-.69-.18-1.35-.35-2-.53L98.5,262c-1.51-.09-2.84-.3-4-.47s-2.13-.31-2.88-.44l-1.56-.36A19.26,19.26,0,0,1,87,259.63a11.54,11.54,0,0,1-2.22-1.46c-1.13-1-1.58-2-1.18-2.78a4.83,4.83,0,0,1,0-2.3,4.78,4.78,0,0,1,5.33-3.66,34,34,0,0,0,6.72,1.14,27.69,27.69,0,0,0,6.09-.34,31.3,31.3,0,0,0,6.79-2C112.83,246.43,117.16,244.08,120.65,242.76Z"/><path class="cls-7" d="M210.84,179.56c.11-.6.21-1.2.28-1.81a22.57,22.57,0,0,0,.1-3.77,10,10,0,0,0-1.22-4.57,12.32,12.32,0,0,0-3.26-3.61,21.4,21.4,0,0,0-3.57-2.23,23.87,23.87,0,0,0-2.37-1c1-1,2-1.9,3-2.82,3.07-2.75,6.67-5.68,11-8.95,8.18-6.16,15.8-11.46,21.45-14.93,3.15-2,5.73-3.41,7.34-4.28,1.79-1,2.82-1.5,2.83-1.5l-.32-.68s-1.07.47-2.93,1.37c-1.67.8-4.35,2.13-7.6,3.93-5.89,3.21-13.81,8.16-22.32,13.93-4.56,3.09-8.36,5.89-11.63,8.55a103.46,103.46,0,0,0-9.63,8.87c-2.12,2.23-3.94,4.29-5.42,6a2.4,2.4,0,0,0-1.3,1.4l0,.09s0,.09,0,.14c-1.12,1.36-2,2.41-2.45,3l-.42.53c-2.72,3.58-4.49,7.05-4.29,8.45a.91.91,0,0,0,.35.64.84.84,0,0,0,.51.16c1.74,0,5.15-4,6.52-5.77a11,11,0,0,0,1.12,2.11,16.71,16.71,0,0,0,4.09,4.11c.29.22.56.4.8.57l.63.43-.68.35c-6.47,3.24-12.55,6.86-12.61,6.9l.91,1.78c.06,0,6.51-2.76,13.23-5.09,5.26-1.86,10.73-3.46,13.36-4.23.77-.23,1.3-.38,1.51-.46a6.52,6.52,0,0,0,1.89-1c.66-.21,1.32-.45,2-.73l3.73-1.7c4.86-2.22,13.89-6.36,22.71-10.2,12.11-5.32,24.12-10.22,24.24-10.27l-.69-1.88c-.12,0-12.48,4.06-25,8.51C226.07,173.71,215,177.93,210.84,179.56Z"/><path class="cls-7" d="M209.55,179.53a5,5,0,0,1,0,.55l-.18.08a19.76,19.76,0,0,0-2.64,1.35,5.25,5.25,0,0,0-.81.22c-1,.32-6.89,2.82-12.74,5.72l-.11-.11c-.28-.3-.76-.8-1.32-1.46a14.21,14.21,0,0,1-2.58-4.2,7,7,0,0,1-.25-4.35,14.16,14.16,0,0,1,.77-2l.16-.36c1.38-1.78,3.08-3.9,5.1-6.23.66-.76,1.34-1.52,2-2.26a4.82,4.82,0,0,0,.79.22l.32.05a19.67,19.67,0,0,1,3.49.74,12.74,12.74,0,0,1,6,3.55,7.55,7.55,0,0,1,1.44,3.25,20.9,20.9,0,0,1,.5,3.42A15.81,15.81,0,0,1,209.55,179.53Z"/><path class="cls-7" d="M295.27,115.86a3,3,0,0,0,.6-.65,4.33,4.33,0,0,0,.75-2.38,6.08,6.08,0,0,0-1.11-3.61,7.15,7.15,0,0,0-3.88-2.57,10.81,10.81,0,0,0-4.72-.22,11.24,11.24,0,0,0-4.18,1.56,10,10,0,0,0-2.72,2.46,6.89,6.89,0,0,0-1,1.84,3,3,0,0,0,.6,3,2.32,2.32,0,0,0,2.39.5,16.23,16.23,0,0,0,2.12-1c.54-.27.93-.33,1-.55a5.19,5.19,0,0,1,.12-.57,4.42,4.42,0,0,1,.85-1.44,5.87,5.87,0,0,1,.87-.85,6.16,6.16,0,0,1,1.18-.75,7.27,7.27,0,0,1,3-.82,4.62,4.62,0,0,1,2.88.78,4.52,4.52,0,0,1,1.6,2.33,3.84,3.84,0,0,1,0,2.16A3.48,3.48,0,0,1,295.27,115.86Z"/><path class="cls-7" d="M295.27,115.86v0"/><path class="cls-7" d="M291.77,120.76a10.79,10.79,0,0,0-3.75-1.85,9.92,9.92,0,0,0-3.67-.28,8.16,8.16,0,0,0-1.12.22l-.4.11.38.16a9.87,9.87,0,0,1,.94.49,8.09,8.09,0,0,1,2.21,2,7.26,7.26,0,0,1,1.18,2.48c.16.71.18,1.17.22,1.26s.48.17,1.07.1a11.87,11.87,0,0,0,2.23-.53,5.17,5.17,0,0,0,2-1.14c.45-.46.62-1,.42-1.34A7.35,7.35,0,0,0,291.77,120.76Z"/><path class="cls-7" d="M197.51,317.06h0c.47.62.94,1.24,1.46,1.86a46.15,46.15,0,0,0,5.33,5.13A35.59,35.59,0,0,0,217.42,331a31.42,31.42,0,0,0,9.39,1,27.09,27.09,0,0,0,10.05-2.34,22.21,22.21,0,0,0,8.53-6.79,25.34,25.34,0,0,0,4.48-9.93,33.09,33.09,0,0,0,.76-6.83,25.12,25.12,0,0,0,6.5,4.23,46.3,46.3,0,0,0,5.69,2.11,33.23,33.23,0,0,0,12,1.53,26.67,26.67,0,0,0,7.57-1.71,23.57,23.57,0,0,0,7.56-4.81,25.26,25.26,0,0,0,5.83-8.54,34.88,34.88,0,0,0,2.65-10.76,49.26,49.26,0,0,0-2.69-20.89A70.69,70.69,0,0,0,288,252.15c-2.65-4-5.05-7.1-6.7-9.27l-2.12-2.73,2.77-2,5.34-3.9c1.76-1.24,3.35-2.6,5-3.84l4.58-3.61c.66-.56,1.32-1.1,1.95-1.64q2.87-2.4,5.33-4.52c.5,2.74,1,5.57,1.39,8.48a222.5,222.5,0,0,1,2.3,30.15,264.23,264.23,0,0,1-1.66,30.69c-1,9.94-2,19.3-3.71,27.26a77.19,77.19,0,0,1-6.47,19.14,50.11,50.11,0,0,1-3.27,5.52c-1,1.4-1.7,2.39-2.1,2.93-1.59,2.16-3.15,4.29-4.47,6.36A36.12,36.12,0,0,0,283,357a17.33,17.33,0,0,0-1,3.24c-.35,1.82-.15,3,.39,3.17.86.31,2.26-1.47,4.51-4.1l4-4.67c1.51-1.79,3.21-3.79,4.89-6.08.42-.57,1.19-1.64,2.22-3.22a53.3,53.3,0,0,0,3.49-6.32,81.86,81.86,0,0,0,6.27-20.8c1.5-8.42,2.13-18,2.77-28a267.66,267.66,0,0,0,.5-31.13,225.61,225.61,0,0,0-3.51-30.38c-.58-3.17-1.21-6.25-1.89-9.22,0-.06,0-.13,0-.19,1.88-1.65,3.52-3.12,4.86-4.4l4.8-4.44-5,4.23c-1.34,1.18-3,2.53-4.82,4-1.3-5.66-2.73-10.91-4.17-15.59-2.26-7.33-4.49-13.29-6.12-17.41-.81-2.07-1.52-3.66-2-4.75-.34-.83-.57-1.36-.66-1.57a.34.34,0,0,0,0-.08v0"/><path class="cls-7" d="M101.62,262.57c1.83.46,3.94.92,6.26,1.34-.11.63-.26,1.74-.42,3.25-.13,1.29-.27,2.88-.39,4.69h0l-1.88-.22-.25,0-3.29-.33c-1.77-.08-3.43-.2-4.94-.23s-2.85,0-4,0a23.34,23.34,0,0,0-3.27.28,11.7,11.7,0,0,0-2,.52A7.45,7.45,0,0,0,85.31,273a4.74,4.74,0,0,0-.89.85,3.67,3.67,0,0,0-.6.93,3.79,3.79,0,0,0-.29,2.52,4.22,4.22,0,0,0,.31.82,3.1,3.1,0,0,0,1.54,1.43,2,2,0,0,0,.53.15,1.33,1.33,0,0,0,1.33-.36,1.52,1.52,0,0,0,.24-.78l0-.18a1.72,1.72,0,0,1,.43-.9,3.51,3.51,0,0,1,.77-.77.87.87,0,0,1,.19-.1c.07,0,.06,0,.19-.08a5.83,5.83,0,0,1,.72-.3A10.8,10.8,0,0,1,93,275.6l3.73-.22c1.4-.06,3-.05,4.62-.07,1.15,0,2.36.07,3.6.13h.28l1.62.09,5.3.51.29,0a95.68,95.68,0,0,1,12.12,2.38c.78.22,1.56.43,2.33.66l.76.23c.82.26,1.64.51,2.44.78l.31.1,1.14.39c1.52.54,3,1.11,4.42,1.69a80.28,80.28,0,0,1,9.17,4.5l1.84,1,1.59,1,.63.41a1.71,1.71,0,0,0,1.05.68c.31.21.6.41.86.61l.72.52,11.4,12.23,15.26,16.39q3,3.18,6.09,6.52c3.78,4.07,7.7,8.25,11.83,12.31,6.39,6.24,13.36,12.14,20.89,16.29,1.87,1.07,3.79,1.93,5.67,2.82s3.79,1.58,5.67,2.18,3.73,1.14,5.53,1.67,3.59.89,5.31,1.17a114.85,114.85,0,0,0,17.43,1.86c4.54.16,7.61.1,8.75.07,8.75-.32,15.7-2.43,16.13-4.39a1,1,0,0,0,0-.24c-.12-2.08-7.5-3.12-16.35-2.8-1.11,0-4.1.21-8.47.25a112.86,112.86,0,0,1-16.65-.95c-1.64-.18-3.3-.55-5-.84s-3.47-.74-5.23-1.29-3.56-1.11-5.38-1.75-3.6-1.43-5.38-2.34c-7.2-3.49-14.16-8.76-20.7-14.54-4.15-3.68-8.17-7.54-12.06-11.32a4.38,4.38,0,0,0,.51,0,14.92,14.92,0,0,0,4.55-1.35,12.23,12.23,0,0,0,3.63-2.59,11.71,11.71,0,0,0,2.25-3.35"/><path class="cls-7" d="M121,259.72c-1.39,0-2.76.09-4.12.2"/><path class="cls-7" d="M116.89,259.92a76.55,76.55,0,0,0-15.27,2.65"/><path class="cls-7" d="M120,203.8v0c-.29.39-5.37,7.48-11,14.47-5.76,7.22-12.09,14.29-12.83,15.25a4.56,4.56,0,0,0-.81,4.59,3.87,3.87,0,0,0,3,2.64A197.88,197.88,0,0,0,118.11,242c1.1,0,2.19.05,3.27.05.2.09.41.16.62.24l-.68.23-.67.24c-3.49,1.32-7.82,3.67-12.14,5.47a31.3,31.3,0,0,1-6.79,2,27.69,27.69,0,0,1-6.09.34,34,34,0,0,1-6.72-1.14,4.78,4.78,0,0,0-5.33,3.66,4.83,4.83,0,0,0,0,2.3c-.4.8,0,1.79,1.18,2.78A11.54,11.54,0,0,0,87,259.63a19.26,19.26,0,0,0,3.09,1.05l1.56.36c.75.13,1.72.27,2.88.44s2.48.38,4,.47l1.16.09c.61.18,1.27.35,2,.53"/><path class="cls-7" d="M290.15,160.81h-.08l-1.21.09a32.52,32.52,0,0,0-3.63.53,48.24,48.24,0,0,0-12.35,4.6c-4.89,2.52-10.28,6-16.05,9.77s-11.78,8.13-17.69,12.7c-3,2.28-5.89,4.63-8.75,7s-5.65,4.83-8.3,7.11a37.21,37.21,0,0,1-8,5.51,16.18,16.18,0,0,1-8,1.6c-2.7-.11-5.54-.48-8-.74s-4.7-.57-6.62-.82l-7.39-1c-7.72-1-14.19-.74-14.51,1s5.77,4.3,13.66,5.35c1,.12,3.66.43,7.58.77,1.58.14,3.37.28,5.33.42a14.08,14.08,0,0,1-.74,1.41,13.22,13.22,0,0,1-2.6,2.93,20.55,20.55,0,0,1-4.29,2.72,38.63,38.63,0,0,1-5.66,2.18c-2.07.63-4.34,1.24-6.64,2.08a35.48,35.48,0,0,0-3.49,1.46,20.85,20.85,0,0,0-3.42,2,14.31,14.31,0,0,0-3,2.9,13.9,13.9,0,0,0-2.09,3.81c-.49,1.32-.82,2.59-1.22,3.75a8.34,8.34,0,0,1-1.44,2.82,3.08,3.08,0,0,1-2,1,10.58,10.58,0,0,1-3.07-.36l-13.51-3c-8.12-1.8-14-3.08-15.39-3.33-4.11-.76-7.77-.58-9.43.31-5.48-1.49-10.84-3.18-14.15-4.21,2.08-3.36,5-8.26,7.68-13.17,4.38-7.9,8.11-15.76,8.34-16.25"/><path class="cls-7" d="M292.45,179.37l1,3.53-8,1.29c-2.56.44-5.67,1-9.23,1.79a101,101,0,0,0-11.8,3.31,82.78,82.78,0,0,0-13.28,6.09,151.44,151.44,0,0,0-13.73,8.89c-4.62,3.29-9.29,6.85-14.11,10.35s-9.8,7-14.81,10.52c-10,7-20.13,14.18-29.25,21.72l-3.37,2.83-3.27,2.87-6.16,5.65a27.33,27.33,0,0,1-5.94,4.23,12.71,12.71,0,0,1-6.12,1.32,61.71,61.71,0,0,1-6.7-.73l-6.45-.89-11-1.51-4.83-.65c.76-.18,1.53-.37,2.28-.58a73.75,73.75,0,0,0,20.53-9c1.71-1.17,3.19-2.2,4.34-3.1l3,.44a14.34,14.34,0,0,0,4.44.1,6.92,6.92,0,0,0,4.43-2.72,11.81,11.81,0,0,0,1.82-4.18c.34-1.33.58-2.6.91-3.75a11.11,11.11,0,0,1,3.69-5.67A25,25,0,0,1,177,227.9c2.15-1,4.31-1.75,6.38-2.56a40.52,40.52,0,0,0,5.64-2.7,21,21,0,0,0,4.21-3.17,13.66,13.66,0,0,0,2.44-3.22,13.39,13.39,0,0,0,.65-1.54l1.28.09c2.56.14,5.24.38,8.48.36a22.7,22.7,0,0,0,5.15-.63,21.84,21.84,0,0,0,5.11-2A42.4,42.4,0,0,0,225,205.9c2.62-2.51,5.17-5,7.88-7.52s5.46-5,8.26-7.39c5.61-4.83,11.35-9.41,16.84-13.52s10.69-7.81,15.36-10.55a47.68,47.68,0,0,1,11.93-5.21,31.89,31.89,0,0,1,3.58-.73l1.2-.16"/><path class="cls-7" d="M191.68,283c.27,3.48.56,7.21.85,11s.6,7.57.89,11.17c.05.62.1,1.2.14,1.78h0a5.55,5.55,0,0,0,.08,1.95v0h0c0,.42,0,.82,0,1.21a11,11,0,0,1-.75,3.81,5.71,5.71,0,0,1-1.68,2.3,6.51,6.51,0,0,1-2,1.15,11.46,11.46,0,0,1-2.82.6,37.08,37.08,0,0,0-4.1.64A9.41,9.41,0,0,0,181,319h0l-1-1-10.09-9.78L164,302.48,153.16,292l-1.13-1.1-.72-.7a22.57,22.57,0,0,0,3.78.28c.47,0,1,0,1.48,0h.24c1.37,0,2.89-.11,4.51-.26,2.32-.29,4.85-.7,7.5-1.23l3.59-.75c1.7-.4,3.87-1,6.46-1.64s5.6-1.4,8.89-2.44Z"/><path class="cls-7" d="M163.5,266.71h0l.08-.06a27.07,27.07,0,0,0,2.28-1.49l.08,0h0a2.76,2.76,0,0,1,1.41-.27,1,1,0,0,1,.66.38l.19.22.6,1c.22.43.46.95.73,1.51l.86,1.82c2.23,4.69,3.87,8.1,4.27,8.84a9.46,9.46,0,0,0,1.56,2.15l-5.14,1.14-3.54.66c-2.59.52-5,1.1-7.25,1.71-1.46.35-2.82.7-4.05,1.07,0-.39,0-.79,0-1.21a29,29,0,0,1,1.43-8.16,23,23,0,0,1,4.1-7.58A20.91,20.91,0,0,1,163.5,266.71Z"/><line class="cls-7" x1="216.99" y1="268.91" x2="216.98" y2="268.91"/><path class="cls-7" d="M217,268.91c-7.07,2.6-13.83,4.8-20,6.6l-2.83.84c-.53.16-1.06.3-1.59.43l-1,.27-.1,0-5.15,1.34c-2,.54-3.79,1-5.5,1.35A10.4,10.4,0,0,0,179.4,274c-.41-.75-2.34-3.86-5-8.12l-1-1.64c-.35-.55-.73-1.2-1.23-1.9A9.79,9.79,0,0,0,171,261c.15-.24.3-.48.47-.71l0,0,0,0L175.8,256l.27-.26h0a18.39,18.39,0,0,1,3.11-1.63,28.63,28.63,0,0,1,7.38-1.93c1.91-.27,3.85-.4,5.79-.48a29.68,29.68,0,0,1,5.48.19,12.09,12.09,0,0,1,6.32,2.76c.31.26.61.52.9.81l.46.46.68.73a72.88,72.88,0,0,1,4.48,5.94c1.31,1.83,2.36,3.12,2.75,3.57A11.88,11.88,0,0,0,217,268.91Z"/><path class="cls-7" d="M235.82,261.27h0s0,0,0,0"/><path class="cls-7" d="M235.84,261.32c-4.64,2.05-9.28,3.95-13.84,5.71,0-.06,0-.12,0-.18a9.41,9.41,0,0,0-.78-1.77,25.48,25.48,0,0,0-3-4.09c-.33-.39-1.27-1.36-2.68-3a63.32,63.32,0,0,0-6.05-6.49,25.31,25.31,0,0,0-2.62-2c-.28-.18-.56-.36-.86-.53a31.08,31.08,0,0,1,2.27-7.05c1.84-3.94,4.88-7.71,8.75-9.68a14.48,14.48,0,0,1,12.16-.18,32,32,0,0,1,9.27,5.95c0,.13,0,.29.05.42l.44.41c0-.13,0-.28,0-.41l.17.15c.38.34.73.69,1.09,1l.46.45c2,2,3.81,3.86,5.29,5.33,1.83,1.84,3.18,3.07,3.7,3.51A15.69,15.69,0,0,0,255,252l-5.49,2.84C245,257.13,240.43,259.29,235.84,261.32Z"/><path class="cls-7" d="M247.84,305.92a29.52,29.52,0,0,1-1.07,6.25,22,22,0,0,1-4.35,8.34,18,18,0,0,1-7.28,5.13,24.51,24.51,0,0,1-16.19.16,26.56,26.56,0,0,1-6.17-3,35.31,35.31,0,0,1-4.5-3.45,50.1,50.1,0,0,1-4.44-4.64c-2-2.31-3.83-4.47-5.41-6.09-.17-1.4-.42-2.77-.67-4.09-.66-3.56-1.36-7.3-2-11s-1.4-7.47-2.05-10.93c0-.07,0-.14,0-.21.69-.21,1.39-.42,2.1-.65l.79-.27.19-.07,1.86-.63A320,320,0,0,0,237.13,265l1.8,5.1c.71,2,1.53,4.3,2.42,6.84a167.86,167.86,0,0,1,5.2,16.25A42.58,42.58,0,0,1,247.84,305.92Z"/><path class="cls-7" d="M279.12,240.18l2,2.9c1.54,2.3,3.77,5.57,6.18,9.75a71.31,71.31,0,0,1,6.78,15.3,49,49,0,0,1,1.82,9.51,45.38,45.38,0,0,1-.26,10c-.89,6.62-3.82,12.57-7.93,15.88a19.08,19.08,0,0,1-6.52,3.54,22.89,22.89,0,0,1-6.54,1,30.1,30.1,0,0,1-10.43-2.11c-2.68-1-4.49-1.91-5.17-2.21-3.42-1.59-6.64-2.64-8.7-2.73a51,51,0,0,0-1.82-8.35,169.84,169.84,0,0,0-6.23-16.09c-2.1-5-3.8-9-4.94-11.68,4.59-2.24,9.17-4.62,13.66-7.14s8.86-5,13.05-7.68c2.1-1.33,4.23-2.58,6.25-3.93l6-4Z"/><path class="cls-7" d="M304,219.91c-1.75,1.39-3.69,2.9-5.77,4.5l-2,1.54-2.9,2.11-1.8,1.31c-1.64,1.16-3.27,2.45-5.07,3.6L281,236.64l-2.83,1.9-2.95,1.82-6.07,3.75c-2.06,1.26-4.22,2.41-6.35,3.64-1.16.68-2.33,1.34-3.52,2a7.71,7.71,0,0,0-1.05-1.84,28.92,28.92,0,0,0-4.36-4.51c-.46-.39-1.74-1.41-3.63-3.06s-4.39-3.91-7.58-6.41c-.57-.44-1.17-.88-1.79-1.31-.34-.25-.7-.49-1.06-.72-.19-.13-.4-.25-.59-.37,0-.17,0-.34.07-.51a22.83,22.83,0,0,1,2.94-8.9,14.54,14.54,0,0,1,3.89-4.31,15.65,15.65,0,0,1,5.42-2.47,31.57,31.57,0,0,1,12.25-.19,41.94,41.94,0,0,1,6.92,1.68l1,.35c1,.33,1.87.7,2.74,1.07a43.56,43.56,0,0,1,7.29,4c1.78,1.2,2.92,2.13,3.34,2.47a24.31,24.31,0,0,0,4.85,3,4.52,4.52,0,0,0,2.61.51,1.43,1.43,0,0,0,.69-.32.93.93,0,0,0,.26-.36,3.65,3.65,0,0,0-.36-3,13.92,13.92,0,0,0-4.16-4.86,36.21,36.21,0,0,0-4-2.59,47.1,47.1,0,0,0-8.59-3.85c-1.29-.43-2.65-.83-4.08-1.17,0,0,0,0,0-.05a41.58,41.58,0,0,1,3.05-9.83,20.21,20.21,0,0,1,1.9-3.49,6.27,6.27,0,0,1,2.34-2.16,4.23,4.23,0,0,1,2.53-.33,9.55,9.55,0,0,1,2.64.92,37.71,37.71,0,0,1,4.45,2.92,23,23,0,0,0,2.72,1.7,6.71,6.71,0,0,0,4.79.57,2.61,2.61,0,0,0,1.84-1.56Z"/><path class="cls-7" d="M238.11,230.86a32.2,32.2,0,0,0-7.56-3.4,20.34,20.34,0,0,0-7.66-.83,16.88,16.88,0,0,0-3.9.79,18.21,18.21,0,0,0-3.62,1.72A23.55,23.55,0,0,0,206.28,241a34.06,34.06,0,0,0-1.72,7.25l-.16-.07a16.67,16.67,0,0,0-6.2-1.33,33.2,33.2,0,0,0-6.18.47c-2,.31-4,.69-6,1.2-.54.14-1.08.29-1.61.45l-1.37.44c8.49-7.41,18-14.59,27.42-21.7,4.89-3.67,9.76-7.34,14.49-11s9.27-7.39,13.75-10.81a150.17,150.17,0,0,1,13.27-9.24,81.66,81.66,0,0,1,12.87-6.43,102.62,102.62,0,0,1,11.6-3.68c3.51-.91,6.6-1.57,9.15-2.09l7.9-1.55,4.43,15.6a8.42,8.42,0,0,0-.61-.73,9.12,9.12,0,0,0-2.55-1.84c-.29-.13-1.07-.48-2.34-1.16l-2.32-1.25a22,22,0,0,0-3.3-1.45,13.74,13.74,0,0,0-4.41-.83,8.83,8.83,0,0,0-5.11,1.5,10.55,10.55,0,0,0-3.31,3.95,23.75,23.75,0,0,0-1.64,4.33,43.45,43.45,0,0,0-1.74,10.61,45.28,45.28,0,0,0-6.34-.86,35.09,35.09,0,0,0-13.65,1.48,18.66,18.66,0,0,0-6.14,3.51,17.31,17.31,0,0,0-4,5.38A24.68,24.68,0,0,0,238.11,230.86Z"/><path class="cls-7" d="M147,268.61a65.42,65.42,0,0,0,7.39.56,18.2,18.2,0,0,0,3.59-.38,30.86,30.86,0,0,0-2.07,6.36,32.35,32.35,0,0,0-.59,9c0,.49.09,1,.15,1.4-.38.11-.75.23-1.1.35-2.54.86-4.32,1.72-5,2.48l-.88-.85.83.9a1,1,0,0,0-.18.3l-.27-.21-1.48-1.14-1.74-1.18a79,79,0,0,0-8.81-5.22l-1.07-.53c0-.42.07-.84.11-1.24.35-3.89.64-6.56.7-7.27a15.59,15.59,0,0,0-.35-4.52l4.26.46Z"/><path class="cls-7" d="M129.56,266.72l-12.33-1.38c-1-.12-2-.26-3-.4a10.53,10.53,0,0,1-.18,1.94c-.06.3-.23,1-.46,2s-.52,2.33-.83,3.92l.52.1a97.73,97.73,0,0,1,12.35,3.34l.94.34,1.11.41c1,.36,2,.76,3,1.15l.85.36c0-.5,0-1,0-1.46,0-3.8.12-6.46.18-7.17a13.93,13.93,0,0,1,.48-2.87Z"/><path class="cls-7" d="M116.71,257.34a82.13,82.13,0,0,1-12.7-.48c-.27,0-.52-.06-.78-.09a37.67,37.67,0,0,0,7.06-4c4.17-3,7.84-6.26,10.94-8.36l.61-.41c.65-.43,1.25-.8,1.82-1.13.85.24,1.76.45,2.71.63,1.35.24,7.34,1.14,15.56,2.34l10,1.45c-1.2.71-2.66,1.5-4.3,2.38a77,77,0,0,1-30.88,7.72Z"/><path class="cls-7" d="M315.2,210.52l.17-.15Z"/><line class="cls-7" x1="242.9" y1="57.99" x2="242.93" y2="58"/><path class="cls-7" d="M85.44,127.48a.16.16,0,0,1,0,0c.07-.17.36-.92.85-2.09A45,45,0,0,1,89.06,120a42.6,42.6,0,0,1,12.22-12.93A39.57,39.57,0,0,1,115.77,101l2.86.08c-.67,1.4-7.12,7.77-8.76,11.29A71.43,71.43,0,0,0,105,126.23a14,14,0,0,0-.33,3.1,36.13,36.13,0,0,0,.44,4.45c.17,1.05.27,1.64.27,1.64l.28-1.63a24.21,24.21,0,0,1,1.15-2.86c.54-1.26,1.23-2.8,2-4.39,1.75-3.89,3.65-8.05,3.9-9,1-3.4,7.09-9.66,9.89-13.28s6.3-2.57,9.19-4.37c.69-.49,1.43-.82,2-1.18a17.47,17.47,0,0,1,1.68-.84l1.21-.58a5.51,5.51,0,0,0,.67-.3,2.63,2.63,0,0,0,1.06-1.19,5,5,0,0,0,.54-1.77c0-.06,0-.14,0-.2h0c.61,0,1.22-.09,1.81-.15l.2,0a91.91,91.91,0,0,0,.87,9.32c.48,3.33,1.13,6.53,1.7,8.88.46,1.89.83,3.22,1,3.68a3.2,3.2,0,0,0-.63-.07,3,3,0,0,0-1.81,5.48L140,125.07q-2.16.47-4.14.81l-.67-.55-2.4-2a2.94,2.94,0,0,0,.41-1.51,3.07,3.07,0,1,0-1,2.29l2.4,2c-1.21.19-2.37.36-3.45.49-1.3.13-2.49.28-3.57.35l-2.9.17c-1.69,0-2.9.07-3.55,0-4.7,0-8.94-.33-12.27-.62l-1-.09c-.86-.08-1.65-.13-2.36-.15"/><path class="cls-7" d="M70.05,113.79a.16.16,0,0,1,0,0c0-.07.1-.25.2-.53a12.44,12.44,0,0,1,.72-1.54,15,15,0,0,1,3.84-4.47,20.7,20.7,0,0,1,7.31-3.64,56.46,56.46,0,0,1,9.58-1.67c2.07-.22,4.15-.4,6.19-.55-.29.3-.59.59-.87.9a46.21,46.21,0,0,0-9.79,16.92,44.16,44.16,0,0,0-1.47,6c-.2,1.28-.3,2.07-.32,2.25"/><path class="cls-7" d="M41.51,86.74h0l2.27-.32c1.48-.19,3.59-.45,6.13-.66a86.32,86.32,0,0,1,18.51.33A54.37,54.37,0,0,1,80,88.87a73.88,73.88,0,0,0-8,3A76,76,0,0,0,64.22,96a73,73,0,0,0-12.13,9.24A67.33,67.33,0,0,0,45,113c-.79,1-1.34,1.82-1.74,2.36s-.49.69-.56.8l.67-.7c.47-.49,1.12-1.23,2-2.09a66.59,66.59,0,0,1,8-6.68,67.2,67.2,0,0,1,28.7-11.82,77.81,77.81,0,0,1,8.22-.82c.58.37,1.1.72,1.56,1l-1.56.53a59.44,59.44,0,0,0-9.76,4.2,23.69,23.69,0,0,0-7.14,6,16.1,16.1,0,0,0-2.91,5.67,12.3,12.3,0,0,0-.35,1.71c0,.29-.05.48-.06.56"/><path class="cls-7" d="M259.35.25h0l-1.12.48c-.74.34-1.85.78-3.23,1.43a118.75,118.75,0,0,0-11.16,6.05A166.19,166.19,0,0,0,228.94,18.6c-5.28,4.08-10.72,8.72-16.13,13.43-3.55,3.1-7.08,6.22-10.55,9.24h0c-1.81,1.58-3.61,3.14-5.39,4.64-5.16,4.4-10.13,8.36-14.62,11.61a135.34,135.34,0,0,1-17.49,10.91,32.75,32.75,0,0,0-4.16,2.8,18.81,18.81,0,0,0-3.14,3,8.38,8.38,0,0,0-2,3.59c-.39.11-.8.23-1.2.38s-.92.36-1.74.72l-3.23,1.14c-1.3.46-2.79,1-4.52,1.48l-2.7.78c-.48.12-.95.29-1.45.4l-.89.19-.64.14A96.91,96.91,0,0,1,109,85.12c-1.71-.19-3.42-.35-5.11-.58-1-.13-2-.29-2.92-.49-1.32-.25-2.64-.42-3.91-.72l-3.76-.93c-.17,0-.35-.09-.53-.12-1-.33-2-.66-3.17-1l-.81-.2-.15,0-2.38-.76c-1.13-.32-2.15-.81-3.18-1.19l-3-1.17a88.66,88.66,0,0,1-8.82-4.39L68.08,71.7c.13.1,1.18.92,2.93,2.31a89.21,89.21,0,0,0,7.89,5.5l0,0a58.92,58.92,0,0,0-10.37.13,88.94,88.94,0,0,0-19,4.11c-2.47.82-4.47,1.56-5.86,2.1-1.22.47-2,.78-2.14.85"/><path class="cls-7" d="M263.4,41.47h0l-2.13-.78c-1.37-.53-3.39-1.13-5.87-1.83a78.85,78.85,0,0,0-19-2.51,74.43,74.43,0,0,0-7.77.31l.69-.79a35.9,35.9,0,0,1,6.87-6.05,28.35,28.35,0,0,1,4.41-2.32,31.89,31.89,0,0,1,5.1-1.54,82.47,82.47,0,0,1,11-1.43c3.6-.29,7-.48,9.83-.6,5.74-.23,9.56-.2,9.56-.2s-3.72-.82-9.44-1.8c-2.85-.48-6.22-1-9.86-1.46a87.7,87.7,0,0,0-11.8-.89,38.26,38.26,0,0,0-6.43.59,35.63,35.63,0,0,0-6.3,1.8c-.54.22-1.07.45-1.58.68.32-.32.65-.66,1-1A162.7,162.7,0,0,1,245,9.86a119.36,119.36,0,0,1,10.28-7.2c1.29-.81,2.34-1.37,3-1.79l1.06-.61"/><path class="cls-7" d="M242.9,58l-.34-.2c-.73-.44-2.54-1.48-5-2.82-3.29-1.79-7.79-4-12.5-6.15l-2.62-1.15a75.14,75.14,0,0,1,14.57-5,76.42,76.42,0,0,1,18.09-1.87l2.47.1c1.42.07,2.63.16,3.56.28l2.25.24"/><path class="cls-7" d="M242.9,58l-25.05-8c.6-.34,1.23-.69,1.92-1l.52-.25Z"/><path class="cls-7" d="M264.68,46.07l0,0-4.48,5.21c-.47.54-1,1.14-1.55,1.75l-.4-5.35a3,3,0,0,0,.88-.35,3,3,0,0,0-1.6-5.64,3.09,3.09,0,0,0-1.59.45,3,3,0,0,0,1.31,5.62l.47,6.3c-.09.1-.19.2-.28.31l-1,1.09-5.89-.82a3,3,0,0,0-.43-1.51,3,3,0,0,0-5.2,3.18,3.12,3.12,0,0,0,.51.62,3,3,0,0,0,5-1.3l5.2.72c-2.28,2.43-4.93,5.19-8,8.17-3.94,3.79-8.47,7.93-13.49,12.16l-1.09-6.89a3.15,3.15,0,0,0,.84-.42,3.07,3.07,0,1,0-1.83.58l1.1,6.89.09.59-.37.31L226,77.38a3,3,0,0,0-3.51-2.66.3.3,0,0,0,0-.08c-.37-.8-1-1.89-1.74-3.22a54.58,54.58,0,0,0-16.33-17.25l-.38-.25,2,0h0a6.83,6.83,0,0,0,.83.29,6.25,6.25,0,0,0,2.35.17,6,6,0,0,0,1.46-.31h0c3.72.15,8.26.43,12.75.89,5,.51,9.85,1.21,13.5,1.85,3.41.6,5.74,1.08,6,1.13"/><path class="cls-7" d="M305.54,429.56l4.5-.19,8.67-.36,2.1-.08,2.06-.16,4-.31h0a24.73,24.73,0,0,0-.91,2.83c-.59,2.33-.51,4.13.5,4.86s2.75.18,4.76-1.36a24.71,24.71,0,0,0,5.91-7.18,1,1,0,0,0,.1-.17l.42-.8a107.73,107.73,0,0,0,6.07-14.29l.64-1.89v0c.26-.8.52-1.63.78-2.48a111.42,111.42,0,0,0,2.93-11.87v0q.58-3,1-6.08a138.28,138.28,0,0,0,1.19-20.26c0-2.94-.15-5.86-.33-8.72,0-.4,0-.8-.08-1.19-.11-1.72-.25-3.41-.4-5.08v0s0-.08,0-.12c-.05-1.07-.1-2.13-.16-3.21a2.18,2.18,0,0,0,0-.25q-.28-5.64-.67-11.39-.19-3.26-.41-6.54c0-.24,0-.48-.05-.72s0-.18,0-.27l.22-.16.09-.07c2-1.49,4.37-3.24,7.05-5.17,4.26-3.1,9.28-6.7,14.64-10.71s11-8.47,16.51-13.38a136.88,136.88,0,0,0,15.43-16,111.62,111.62,0,0,0,11.57-17.18,92.69,92.69,0,0,0,8.48-21.15,15.05,15.05,0,0,1,2.13.09,12,12,0,0,1,6.9,3.24,19.56,19.56,0,0,1,3.53,4.57c.24.39.45.78.65,1.16s.29.57.43.86c0,.07-.07.15-.12.23l-.33.69c-1.36,2.82-5.09,10.87-10.52,21.19-6,11.33-14.24,25.35-24.22,37.35A133.75,133.75,0,0,1,385,333.88,102.82,102.82,0,0,1,369.55,345a89.62,89.62,0,0,1-11.84,5.78l-.5.2c-.86.33-1.61.57-2.22.79a.66.66,0,0,0,0,.14c.6-.17,1.35-.39,2.21-.66l.58-.18A85.74,85.74,0,0,0,370,346a102.54,102.54,0,0,0,16.16-10.31,131.27,131.27,0,0,0,16.74-15.45c10.77-11.62,19.87-25.44,26.44-36.62,4.47-7.59,7.87-13.93,9.91-17.83.54-1,1-1.89,1.33-2.55a6.86,6.86,0,0,0,1.34-.09l.85-.19,1.57-.29c.64-.12,1.37-.27,2.2-.35s1.73-.26,2.72-.3a48.91,48.91,0,0,1,27.08,5.65,44.15,44.15,0,0,1,3.92,2.39c.81.54,1.31.89,1.43,1l-1.26-1.18a42.79,42.79,0,0,0-3.55-3,50.51,50.51,0,0,0-12.68-7,52,52,0,0,0-15-3.23c-1.11-.12-2.14-.08-3.07-.1s-1.79,0-2.51.06l-1.32.08-.5,0-1,.14a8.42,8.42,0,0,0-2,.61,6.13,6.13,0,0,0-1.48,1.07L437,259c-.09-.3-.19-.6-.29-.92s-.22-.66-.34-1c-.25-.68-.53-1.39-.85-2.13a20.42,20.42,0,0,0-2.77-4.58,14.45,14.45,0,0,0-7.75-5,15.68,15.68,0,0,0-2-.4,22.82,22.82,0,0,0-7.11.17l-.33,0a35.73,35.73,0,0,0-6.42,1.84h0c-1.78-3.09-5.68-9.83-10.94-18.74-7.32-12.39-17.28-28.93-27.69-45.58s-21.2-33.44-30-46.56a190.43,190.43,0,0,0-12-16.13,95.82,95.82,0,0,0-7-7.53A48.08,48.08,0,0,0,316.2,108c.08-.33.17-.65.25-1s.17-.67.24-1a36.14,36.14,0,0,0,.9-10.12,35,35,0,0,0-2.2-10.42,30.33,30.33,0,0,0-5.6-9.38,22.86,22.86,0,0,0-9-6.3A33.76,33.76,0,0,0,290.7,68a43.27,43.27,0,0,1-8.2-1,12.13,12.13,0,0,1-5.43-3,15.88,15.88,0,0,1-3.07-4.2,21.42,21.42,0,0,1-1.47-3.7,3.1,3.1,0,0,0-.27-1c-.12-.46-.2-.82-.25-1.06-.73-3.19-1.24-6.32-1.91-8.64s-1.47-3.81-2.36-3.79-1.67,1.49-2.17,3.95c0,.21-.08.42-.12.65a24.63,24.63,0,0,0,.3,9.26c.08.3.19.77.37,1.38l-7.29-1-.16-2.23c.61-.74,1.2-1.45,1.72-2.1,2.57-3.23,4.09-5.16,4.27-5.39"/><path class="cls-7" d="M297.88,429.62l3.07,0,4.59,0"/><path class="cls-7" d="M164.08,325.89l0,0-3.42-2.7c-2.2-1.78-5.44-4.19-9.38-7.08a304.33,304.33,0,0,0-30.63-19.41c-2.72-1.51-5.48-3-8.25-4.38l-.39-.2c-8.44-4.3-16.88-8.07-24.14-11l-1.37-.55q-.64-.27-1.29-.51c-.55-.23-1.09-.44-1.63-.64-1.42-.54-2.78-1-4.06-1.51-2.13-.82-4.07-1.47-5.74-2l-4.18-1.41-2.33-.69a35.16,35.16,0,0,0-4.93-1,22.25,22.25,0,0,0-4.21-.06c-.27,0-.53,0-.77.09h0a1.53,1.53,0,0,0-.17-.27c-1.53-1.92-6.23-.75-10.42,2.72-1.06.86-5.49,4.88-11.43,10.55s-13.35,13-20.42,20.41c-4.92,5.13-9.69,10.29-13.8,14.84l-.82.9c.12.56.26,1.14.4,1.72l.15.6c.21.8.43,1.63.67,2.47a94.42,94.42,0,0,0,7.94,19.07,115.15,115.15,0,0,0,13.7,19.76C33.84,378.26,47.3,388.63,58.18,396s19.21,12.13,21.09,13.2a42.27,42.27,0,0,0,9.33,3.89,1.9,1.9,0,0,0,.5.52c2.11,1.46,7.42,0,12.05-3.18,1.15-.81,6-4.46,12.92-9.34,3.49-2.46,7.52-5.21,11.85-8.07.39.94,2.58,2.54,6,4.48,2.05,1.15,4.52,2.43,7.31,3.74s6,2.47,9.31,3.71l4.55,1.64c2.19.72,5,1.6,8.37,2.67l5.43,1.71c1.92.64,4,1.15,6.2,1.78l6.89,1.91c1.2.32,2.41.68,3.67,1l3.85.93A451.86,451.86,0,0,0,262,428.45l10,.62,2.48.16,2.47.07,4.92.14c3.27.07,6.5.23,9.7.22h.06l6.3,0"/><path class="cls-7" d="M177.36,363.46h0l-3.58,1.41c-2.29.89-5.54,2.22-9.44,3.84-7.79,3.26-18.08,7.84-28.27,12.83s-20.23,10.4-27.95,14.83S95,404.22,93.78,405a21.51,21.51,0,0,0-2.25,1.77,46.66,46.66,0,0,0-7.94-5.42c-1.86-1.06-10.3-5.25-21.37-11.74S37.56,374,26.41,362.58a112.91,112.91,0,0,1-14.57-18.2,93,93,0,0,1-9-18.06c-.37-1-.7-2-1-2.92,4.77-4.24,10.38-9.1,16.13-13.92,7.79-6.55,15.88-13,22.29-18l12.19-9.36a19.68,19.68,0,0,0,3.52-3.75h0l.65.45a22.35,22.35,0,0,0,3.64,1.88,32.79,32.79,0,0,0,4.62,1.63l2.28.57,4.14,1.1c1.66.43,3.59.92,5.71,1.56s4.5,1.24,7,2.06a307.13,307.13,0,0,1,34.66,13,307.12,307.12,0,0,1,31.85,16.57c4.15,2.53,7.59,4.66,9.93,6.23l3.64,2.39"/><path class="cls-7" d="M342.84,279.77c.27,11.76.29,23.89,1.21,35.94.08,1.15.17,2.3.26,3.45-.2-1.11-.32-1.82-.36-2,0,.31.13,1.55.31,3.54,0,.27.05.56.08.86v0c.26,2.84.63,6.9,1,11.79.15,2,.31,4.23.45,6.54.41,6.78.7,14.55.46,22.57l0,.94c-.07,2.05-.18,4.12-.33,6.18a132.58,132.58,0,0,1-2.73,19.32,112.9,112.9,0,0,1-5.06,16.61,126.13,126.13,0,0,1-8.61,17.6,44.55,44.55,0,0,0-2,4.1l-.63,0-4,.18-2.05.09-2.1,0-8.65.09-4.48.05-4.57-.1-9.38-.22c-3.18-.09-6.39-.35-9.63-.51l-4.89-.29-2.45-.15-2.46-.23-9.89-.91a452.27,452.27,0,0,1-73.36-13.91l-3.77-1c-1.23-.34-2.42-.74-3.6-1.09l-6.74-2.07c-2.14-.68-4.19-1.23-6.08-1.91l-5.3-1.83-8.19-2.82-4.46-1.69c-3.28-1.22-6.45-2.29-9.35-3.19s-5.49-1.82-7.73-2.42a28.45,28.45,0,0,0-6.38-1.18c3.85-2.53,7.9-5.11,12-7.62,9.27-5.67,18.73-11,25.95-14.82,3.62-1.91,6.63-3.48,8.77-4.55l3.33-1.68"/><path class="cls-7" d="M346.9,278.1c0-4.1-.06-8.18-.19-12.22s-.37-8-.7-12-.82-7.78-1.43-11.54a156.84,156.84,0,0,0-5.11-21.06,208.77,208.77,0,0,0-13.18-31.51c-4-7.9-7.1-13.11-8.21-15a172.72,172.72,0,0,0-12.78-18.89c-3.63-4.59-6.27-7.16-7-6.68s.54,3.93,3.18,9.12,6.62,12.13,11.08,19.7c1.09,1.91,4.19,7,8.29,14.63A204.77,204.77,0,0,1,334.33,223a150.78,150.78,0,0,1,5.4,20.21c.67,3.61,1.21,7.34,1.65,11.15s.73,7.73.95,11.7c.26,4.49.4,9.06.51,13.69"/><path class="cls-7" d="M257.51,63.71a3.07,3.07,0,1,0,1.87-.43l-.47-6.45,7.54,1.05a1.87,1.87,0,0,0,.07.22,25.45,25.45,0,0,0,2.1,4.65,21.69,21.69,0,0,0,4.57,5.58,17.91,17.91,0,0,0,3.65,2.41,19.46,19.46,0,0,0,4.41,1.51c6.14,1.32,12.51-.09,18.08,1.71a18.66,18.66,0,0,1,7.7,4.77,26.78,26.78,0,0,1,5.39,8A32.17,32.17,0,0,1,315,96.14a33.92,33.92,0,0,1-.29,9.51c-.06.4-.15.79-.22,1.18a34.79,34.79,0,0,0-4.34-2.44,18.87,18.87,0,0,0-2.63-1,10.56,10.56,0,0,0-.5-1.63,8.87,8.87,0,0,0-3.34-4.1,11,11,0,0,0-4.81-1.48c-5.58-.42-10.42-.78-15.14-1.06a18.86,18.86,0,0,0-3.79.21,11.53,11.53,0,0,0-3.71,1.29,13.13,13.13,0,0,0-4.68,4.56,16.26,16.26,0,0,0-2.31,6.54,15.6,15.6,0,0,0,1.28,8.34c.9,1.9,1.92,2.91,2.79,2.75s1.42-1.51,1.68-3.46.31-4.45.61-6.85c.05-.31.09-.84.26-1.57a10.91,10.91,0,0,1,1-2.64,7.22,7.22,0,0,1,2.33-2.65,8.44,8.44,0,0,1,4.55-1.11c4.28,0,9.64,0,14.83,0a6.92,6.92,0,0,1,3,.61,4.87,4.87,0,0,1,2,2.14c1,1.93.9,4.47.19,7s-1.88,5.1-2.8,7.76a17.82,17.82,0,0,0-1.2,8.43,11.93,11.93,0,0,0,.51,2.06c.23.65.51,1.24.77,1.81a7,7,0,0,1-1.47,8.71A11.79,11.79,0,0,1,295,141.9a24.64,24.64,0,0,1-4.14,1.07c-1.17.21-2.1.33-2.74.41l-1,.12,1-.05c.64,0,1.58-.09,2.77-.21a23.64,23.64,0,0,0,4.28-.78,12.67,12.67,0,0,0,5.08-2.72,9.23,9.23,0,0,0,3.17-6.23v-.06l.46-.69c1.61-2.45,3.92-6,6.38-10.42a78.82,78.82,0,0,0,3.9-8.2c.93.87,1.89,1.77,2.87,2.72s3.42,3.2,6.8,6.94A191.84,191.84,0,0,1,336,139.05c9.17,12.68,20.65,29.06,31.71,45.26s21.71,32.34,29.54,44.42C402.91,237.42,407.1,244,409,247l-1.45.57c-2.25.92-4.11,1.77-5.49,2.38l-2.65,1.16a8.66,8.66,0,0,0-3.07,2.35,3,3,0,0,0-.74,2.67,2.63,2.63,0,0,0,2.35,1.57,7.85,7.85,0,0,0,4.23-.8c.36-.18,1.33-.7,2.68-1.49s3.07-1.85,5-3a42.22,42.22,0,0,1,4.76-2.37,92.64,92.64,0,0,1-5.93,16,108.8,108.8,0,0,1-10.1,17,137.2,137.2,0,0,1-14.09,16.52C374.3,310,363.13,318.85,355,325.72c-2.48,2.07-4.71,3.94-6.58,5.55l-.22.19q-.4-5.94-.73-11.95l-.06-1.27c-.05-.9-.1-1.81-.14-2.72-.66-12.48-.33-25.08-.35-37.42"/><path class="cls-7" d="M176.44,121.84a0,0,0,0,0,0,0c0-.07-.11-.31-.24-.7l4.16,1.74a3,3,0,1,0-.12-1.14l-3.65-1.52-.81-.34c-.17-.5-.36-1.09-.57-1.75,1-.48,2-1,3.06-1.48a245.32,245.32,0,0,0,25-14.08l-.28,5.56a3.31,3.31,0,0,0-.91.24,3.07,3.07,0,1,0,1.91-.19l.28-5.56,0-.72.2-.12.86.23,6.76,1.82a3.05,3.05,0,1,0-.27-1.11L205.59,101a248.29,248.29,0,0,0,23.8-17.82c1.44-1.23,2.83-2.45,4.19-3.67l.93,5.86a3,3,0,0,0-.84.42,3.06,3.06,0,1,0,1.82-.58l-1-6.38.86.05,7.22.39a3.05,3.05,0,1,0-.49-1l-6.68-.36c4.84-4.42,9.18-8.73,13-12.66,2.92-3.12,5.48-6,7.65-8.52.08-.09.16-.17.23-.26l.64.09,1,.14.49,6.67a2.94,2.94,0,0,0-.87.35"/><path class="cls-7" d="M144,140.37a7.7,7.7,0,0,1,.29,1.33,11.85,11.85,0,0,1-.19,3.63,93.89,93.89,0,0,0-1.89,11.29,75,75,0,0,0-.18,12,59.38,59.38,0,0,0,.75,6.45c0,.19.09.37.14.54a.44.44,0,0,1-.17,0,2.17,2.17,0,0,1-1-.43,16.71,16.71,0,0,1-1.68-1.4c-.61-.56-1.23-1.16-1.83-1.79a38.82,38.82,0,0,1-4.3-5.41,37.81,37.81,0,0,0,2.74,6.53c.44.8.91,1.6,1.38,2.34l.32.49c-.46-.1-.92-.19-1.38-.26a28.31,28.31,0,0,0-4.57-.38,22.08,22.08,0,0,0-3.67.26h0l.55-.78a12.26,12.26,0,0,0,1.44-2.87c.11-.28.33-1,.79-2.09.34-.83.84-2,1.37-3.33.18-.45.35-.92.53-1.4.72-2,1.46-4.23,2.11-6.72.32-1.25.63-2.55.9-3.89q.21-1,.39-2l.13-.67c0-.28.1-.55.13-.82a3.85,3.85,0,0,0-.11-1.59,3.45,3.45,0,0,0-1.16-1.65,5.72,5.72,0,0,0-.85-.61l-.7-.44L132,145.27l-4.59-2.72a82.78,82.78,0,0,1-8-5.36,41.84,41.84,0,0,1-4.61-4.1,41.55,41.55,0,0,0,6.27.48c.72,0,2-.06,3.89-.13l3.15-.27c1.17-.11,2.44-.32,3.84-.5s2.95-.49,4.57-.82l-1.56,3a3.24,3.24,0,0,0-.93-.16,3.05,3.05,0,1,0,1.82.61l1.94-3.76c.87-.19,1.76-.39,2.68-.62l.58.47,4,3.3a3,3,0,1,0,.21-1.11l-3.59-3c3.39-.86,7.07-2,10.93-3.28,6-2.16,12.58-4.68,19.33-7.73l-1.17,6.27a3,3,0,0,0-.93.12,3.06,3.06,0,1,0,1.91.06l1.17-6.27,0-.08,2.82,1.18c.4.51.66.83.72.9"/><path class="cls-7" d="M173.93,184.41h0l-.28.08a7,7,0,0,1-.87.24,12.38,12.38,0,0,1-3.15.32,22.37,22.37,0,0,1-9.21-2.66c-3.2-1.6-6.42-3.54-9.31-4.64a35.28,35.28,0,0,0-4.37-1.36,7.61,7.61,0,0,0-.16-2.13c-.1-.53-.73-2.82-1.29-6.05a76.26,76.26,0,0,1-1.12-11.53,93.62,93.62,0,0,1,.58-11.29,12.29,12.29,0,0,0-.25-3.73,6.56,6.56,0,0,0-.45-1.3,0,0,0,0,1,0,0"/><path class="cls-7" d="M122.88,202.92h0a1.22,1.22,0,0,0-.07-.17,64,64,0,0,0,7.81,2c1.77.33,3.59.59,5.29.77s3.24.35,4.52.56a20.76,20.76,0,0,1,4.39,1.15,3,3,0,0,0,2.06-.17,4.19,4.19,0,0,0,1.9-1.51,2.56,2.56,0,0,0,.22-2.49,3.66,3.66,0,0,0-2.3-2,14.12,14.12,0,0,0-2.09-.37,25.06,25.06,0,0,0-3.94-.05c-1.18.06-2.42.19-3.7.34h-.05c.16-.48.36-1,.59-1.61a40.19,40.19,0,0,1,3.89-6.81c1.62-2.4,3.36-4.87,4.56-7a22.74,22.74,0,0,0,2-4.41,5.23,5.23,0,0,0,.11-.75c.63.12,1.31.26,2.05.44,2.68.65,6.06,2.11,9.58,3.34a23.24,23.24,0,0,0,10,1.48,12.3,12.3,0,0,0,3.17-.75,7.64,7.64,0,0,0,.83-.36l.27-.12"/><path class="cls-7" d="M106.59,130.84l.23.09a32.76,32.76,0,0,0,7.27,2c.09.13.18.26.29.39a40.81,40.81,0,0,0,4.13,4.79,85.59,85.59,0,0,0,7.43,6.49l4.22,3.3,2.1,1.65.26.21.14.12.2.19a.75.75,0,0,1,.23.47,1.12,1.12,0,0,1-.1.4l-.07.17,0,.09-.07.24c-.21.63-.4,1.25-.6,1.87-.41,1.22-.84,2.4-1.28,3.52-.88,2.24-1.81,4.26-2.68,6s-1.65,3.08-2.31,4.31a21.29,21.29,0,0,0-1.2,2.55,8.38,8.38,0,0,0-.53,2.92,6.19,6.19,0,0,0,.6,2.64,3,3,0,0,0,1.55,1.5,2.36,2.36,0,0,0-.34.24,25.83,25.83,0,0,0-3.11,4.16,23.8,23.8,0,0,0-3.49,9.35,17,17,0,0,0,1.26,9.21,12,12,0,0,0,.85,1.51h-.05l-.55-.06,1,1.25.3.11.49.16.19.21"/><path class="cls-7" d="M122.16,201.05a11.34,11.34,0,0,1-.36-1.71,14.31,14.31,0,0,1,1.21-7.71,17.92,17.92,0,0,1,4.62-5.93l.23-.2c.06.14.11.27.18.41a13.53,13.53,0,0,0,2.1,3.32,9.17,9.17,0,0,0,3,2.34,7.19,7.19,0,0,0,5.86.15l.25-.12a41.1,41.1,0,0,0-2.47,7.58q-.18,1-.27,1.8s0,.05,0,.08l-.63.07c-1.64.19-3.33.34-5,.41a63.84,63.84,0,0,1-8.62-.23C122.21,201.23,122.19,201.14,122.16,201.05Z"/><path class="cls-7" d="M133.26,180.64a26.09,26.09,0,0,1,5.93-1.26c.61-.06,1.21-.09,1.81-.1.42,0,.84,0,1.25,0a5.11,5.11,0,0,0,.72.12,1.86,1.86,0,0,0,.34,0l.26.13c0,.11-.09.22-.12.33a30.77,30.77,0,0,1-1,4c-.63,1.93-1.66,4.34-2.71,6.83a6.27,6.27,0,0,1-.77,0,6.7,6.7,0,0,1-4.6-2.13,9.69,9.69,0,0,1-2.38-5,13.62,13.62,0,0,1-.2-2.32l.3-.11Z"/><path class="cls-7" d="M202.72,87a3,3,0,0,0,1,5.49l-.32,6.1,0,0c-.69.42-1.4.83-2.1,1.24l-.94-.25-4.13-1.12A3.12,3.12,0,0,0,196,97a3,3,0,0,0-4-1.51,3,3,0,0,0-1.49,1.47c-1.92-4.38-8-18.19-10.54-23.38.55-.41,1.11-.85,1.68-1.3.8.47,1.72,1,2.74,1.65,2.93,1.79,6.62,4.18,10.16,6.75C197.51,82.8,200.4,85.09,202.72,87Z"/><path class="cls-7" d="M165.33,115.5l2.15.89c1.25-.49,2.51-1,3.77-1.52-1.78-2.6-3.76-5.77-5.61-9.11a111.45,111.45,0,0,1-6-12.84c-.37-1-.7-1.86-1-2.68l-.13.05c-.37.14-1.07.37-2.05.67-.83.22-1.87.46-3.08.73-.65,1.53-3.2,6.6-5.14,12a112,112,0,0,0-3.63,12h0a3,3,0,0,1-.72,6,2.82,2.82,0,0,1-.92-.16l-1.72,3.33c3-.67,6.22-1.51,9.65-2.56,4.76-1.51,9.91-3.25,15.25-5.3l-1.19-.5a3,3,0,1,1,.35-2.49A3,3,0,0,1,165.33,115.5Z"/><path class="cls-7" d="M173.06,110.31a3.54,3.54,0,0,0,.52.25l-.2,1.06C173.27,111.19,173.17,110.76,173.06,110.31Z"/><path class="cls-7" d="M174.46,119.31l-1-.4.49-.23Z"/><path class="cls-7" d="M200.1,100.58a245,245,0,0,1-23.69,12.08c-.8.36-1.6.7-2.4,1l.55-3a3,3,0,0,0,.93-.12,3,3,0,0,0-1.75-5.83,3,3,0,0,0-1.61,1.19c-.16-.79-.31-1.58-.45-2.38a118.67,118.67,0,0,1-1.5-13.08c-.21-3.69-.24-6.35-.32-6.94A3.84,3.84,0,0,0,168,81.05q.84-.31,1.68-.72c3.6,3.27,15.48,13.08,19.78,16.63l.76.62a3,3,0,0,0,4.23,3.4,3,3,0,0,0,1.5-1.51Z"/><path class="cls-7" d="M208,91.62h0l-.63-1.27a3,3,0,0,0-1.9-3.65l-.3-.55c-1.54-2.82-3.64-6.39-6-9.93-2.51-3.81-5.3-7.56-7.63-10.43l-1-1.2c.91-.82,1.82-1.68,2.74-2.57a2.28,2.28,0,0,0,1.2,1c.45.13,2.51.38,5.39,1a51.41,51.41,0,0,1,10.07,3.34,52.69,52.69,0,0,1,9.23,5.39c1.11.84,2,1.56,2.68,2.12a3.55,3.55,0,0,0-.72.38,3,3,0,0,0,3.61,4.91,3,3,0,0,0,1.15-1.79h0l5.84.32c-1.19,1-2.39,2-3.63,2.93A246.85,246.85,0,0,1,204.47,98l.27-5.41a2.67,2.67,0,0,0,.91-.24,3,3,0,0,0,1.48-1.45l.82.74"/><path class="cls-7" d="M257,55.56l.74-.88.08,1Z"/><path class="cls-7" d="M309.36,121.88c-2.17,4.55-4.26,8.19-5.72,10.73l-.24.41a7.69,7.69,0,0,0-.18-1.51,14.61,14.61,0,0,0-.59-1.87,11.29,11.29,0,0,1-.89-3.44,15.8,15.8,0,0,1,1.63-7.25c1-2.46,2.39-4.9,3.42-7.74a17.75,17.75,0,0,0,.83-3.17c1.47,1.41,3.29,3.07,5.29,4.94A74.29,74.29,0,0,1,309.36,121.88Z"/></g></g></svg>